<mxfile host="app.diagrams.net" agent="Mozilla/5.0 (Macintosh; Intel Mac OS X 10_15_7) AppleWebKit/537.36 (KHTML, like Gecko) Chrome/137.0.0.0 Safari/537.36" version="26.1.1">
  <diagram id="f106602c-feb2-e66a-4537-3a34d633f6aa" name="Page-1">
    <mxGraphModel grid="1" page="1" gridSize="10" guides="1" tooltips="1" connect="0" arrows="0" fold="1" pageScale="1" pageWidth="1169" pageHeight="827" background="none" math="0" shadow="0">
      <root>
        <mxCell id="0" />
        <mxCell id="1" parent="0" />
        <mxCell id="jj8_yMQ8znHw3ZDIOY7E-1066" value="" style="sketch=0;aspect=fixed;pointerEvents=1;shadow=0;dashed=0;html=1;strokeColor=none;labelPosition=center;verticalLabelPosition=bottom;verticalAlign=top;align=center;fillColor=#00188D;shape=mxgraph.azure.laptop" vertex="1" parent="1">
          <mxGeometry x="680" y="720" width="133.34" height="80" as="geometry" />
        </mxCell>
        <mxCell id="jj8_yMQ8znHw3ZDIOY7E-1053" value="" style="sketch=0;aspect=fixed;pointerEvents=1;shadow=0;dashed=0;html=1;strokeColor=none;labelPosition=center;verticalLabelPosition=bottom;verticalAlign=top;align=center;fillColor=#00188D;shape=mxgraph.azure.laptop" vertex="1" parent="1">
          <mxGeometry x="240" y="720" width="133.34" height="80" as="geometry" />
        </mxCell>
        <mxCell id="jj8_yMQ8znHw3ZDIOY7E-1048" value="" style="sketch=0;aspect=fixed;pointerEvents=1;shadow=0;dashed=0;html=1;strokeColor=none;labelPosition=center;verticalLabelPosition=bottom;verticalAlign=top;align=center;fillColor=#00188D;shape=mxgraph.azure.laptop" vertex="1" parent="1">
          <mxGeometry x="20" y="720" width="133.34" height="80" as="geometry" />
        </mxCell>
        <mxCell id="jj8_yMQ8znHw3ZDIOY7E-1052" value="" style="sketch=0;outlineConnect=0;fontColor=#232F3E;gradientColor=none;fillColor=#232F3D;strokeColor=none;dashed=0;verticalLabelPosition=bottom;verticalAlign=top;align=center;html=1;fontSize=12;fontStyle=0;aspect=fixed;pointerEvents=1;shape=mxgraph.aws4.source_code;" vertex="1" parent="1">
          <mxGeometry x="320.67" y="731" width="27.77" height="38" as="geometry" />
        </mxCell>
        <mxCell id="jj8_yMQ8znHw3ZDIOY7E-1054" value="Python&lt;div&gt;VS Code&lt;/div&gt;&lt;div&gt;Git&lt;/div&gt;&lt;div&gt;gcloud&lt;/div&gt;" style="text;strokeColor=none;align=center;fillColor=none;html=1;verticalAlign=middle;whiteSpace=wrap;rounded=0;fontSize=9;" vertex="1" parent="1">
          <mxGeometry x="250.67000000000002" y="740" width="70" height="20" as="geometry" />
        </mxCell>
        <mxCell id="jj8_yMQ8znHw3ZDIOY7E-1057" value="&lt;b&gt;Google &lt;/b&gt;Cloud Platform" style="fillColor=#F6F6F6;strokeColor=none;shadow=0;gradientColor=none;fontSize=14;align=left;spacing=10;fontColor=#717171;9E9E9E;verticalAlign=top;spacingTop=-4;fontStyle=0;spacingLeft=40;html=1;container=0;" vertex="1" parent="1">
          <mxGeometry x="342.44" y="500" width="247.56" height="170" as="geometry" />
        </mxCell>
        <mxCell id="jj8_yMQ8znHw3ZDIOY7E-1058" value="" style="shape=mxgraph.gcp2.google_cloud_platform;fillColor=#F6F6F6;strokeColor=none;shadow=0;gradientColor=none;" vertex="1" parent="1">
          <mxGeometry x="362.44" y="510" width="23" height="20" as="geometry">
            <mxPoint x="20" y="10" as="offset" />
          </mxGeometry>
        </mxCell>
        <mxCell id="jj8_yMQ8znHw3ZDIOY7E-1063" value="" style="edgeStyle=none;orthogonalLoop=1;jettySize=auto;html=1;rounded=0;endArrow=none;startFill=0;" edge="1" parent="1">
          <mxGeometry width="80" relative="1" as="geometry">
            <mxPoint x="200" y="820" as="sourcePoint" />
            <mxPoint x="200" y="440" as="targetPoint" />
            <Array as="points" />
          </mxGeometry>
        </mxCell>
        <mxCell id="jj8_yMQ8znHw3ZDIOY7E-1064" value="" style="edgeStyle=none;orthogonalLoop=1;jettySize=auto;html=1;rounded=0;endArrow=none;startFill=0;" edge="1" parent="1">
          <mxGeometry width="80" relative="1" as="geometry">
            <mxPoint x="640" y="820" as="sourcePoint" />
            <mxPoint x="640" y="440" as="targetPoint" />
            <Array as="points" />
          </mxGeometry>
        </mxCell>
        <mxCell id="jj8_yMQ8znHw3ZDIOY7E-1068" value="Python&lt;div&gt;VS Code&lt;/div&gt;&lt;div&gt;Git&lt;/div&gt;&lt;div&gt;gcloud&lt;/div&gt;" style="text;strokeColor=none;align=center;fillColor=none;html=1;verticalAlign=middle;whiteSpace=wrap;rounded=0;fontSize=9;" vertex="1" parent="1">
          <mxGeometry x="690.6700000000001" y="740" width="70" height="20" as="geometry" />
        </mxCell>
        <mxCell id="jj8_yMQ8znHw3ZDIOY7E-1076" value="" style="group" connectable="0" vertex="1" parent="1">
          <mxGeometry x="753" y="728" width="37.77000000000011" height="48" as="geometry" />
        </mxCell>
        <mxCell id="jj8_yMQ8znHw3ZDIOY7E-1073" value="" style="sketch=0;outlineConnect=0;fontColor=#232F3E;gradientColor=none;fillColor=#232F3D;strokeColor=none;dashed=0;verticalLabelPosition=bottom;verticalAlign=top;align=center;html=1;fontSize=12;fontStyle=0;aspect=fixed;pointerEvents=1;shape=mxgraph.aws4.source_code;" vertex="1" parent="jj8_yMQ8znHw3ZDIOY7E-1076">
          <mxGeometry x="10.000000000000114" y="10" width="27.77" height="38" as="geometry" />
        </mxCell>
        <mxCell id="jj8_yMQ8znHw3ZDIOY7E-1075" value="" style="whiteSpace=wrap;html=1;strokeColor=none;" vertex="1" parent="jj8_yMQ8znHw3ZDIOY7E-1076">
          <mxGeometry width="30" height="40" as="geometry" />
        </mxCell>
        <mxCell id="jj8_yMQ8znHw3ZDIOY7E-1067" value="" style="sketch=0;outlineConnect=0;fontColor=#232F3E;gradientColor=none;fillColor=#232F3D;strokeColor=none;dashed=0;verticalLabelPosition=bottom;verticalAlign=top;align=center;html=1;fontSize=12;fontStyle=0;aspect=fixed;pointerEvents=1;shape=mxgraph.aws4.source_code;" vertex="1" parent="jj8_yMQ8znHw3ZDIOY7E-1076">
          <mxGeometry x="1.1368683772161603e-13" width="27.77" height="38" as="geometry" />
        </mxCell>
        <mxCell id="jj8_yMQ8znHw3ZDIOY7E-1077" value="&amp;nbsp; Region x" style="html=1;align=left;verticalAlign=top;rounded=0;absoluteArcSize=1;arcSize=20;dashed=1;whiteSpace=wrap;" vertex="1" parent="1">
          <mxGeometry x="362.44" y="540" width="210" height="110" as="geometry" />
        </mxCell>
        <mxCell id="jj8_yMQ8znHw3ZDIOY7E-1061" value="" style="strokeColor=#dddddd;shadow=1;strokeWidth=1;rounded=1;absoluteArcSize=1;arcSize=2;" vertex="1" parent="1">
          <mxGeometry x="402.44" y="565" width="127.56" height="60" as="geometry" />
        </mxCell>
        <mxCell id="jj8_yMQ8znHw3ZDIOY7E-1062" value="Cloud&lt;br&gt;Function" style="editableCssRules=.*;html=1;fontColor=#999999;shape=image;verticalLabelPosition=middle;verticalAlign=middle;labelPosition=right;align=left;spacingLeft=20;part=1;points=[];imageAspect=0;image=data:image/svg+xml,PHN2ZyB4bWxucz0iaHR0cDovL3d3dy53My5vcmcvMjAwMC9zdmciIHhtbG5zOnY9Imh0dHBzOi8vdmVjdGEuaW8vbmFubyIgd2lkdGg9IjIwIiBoZWlnaHQ9IjE5Ljk4OTk5OTc3MTExODE2NCIgdmlld0JveD0iMCAwIDIwIDE5Ljk4OTk5OTc3MTExODE2NCI+JiN4YTsJPHN0eWxlIHR5cGU9InRleHQvY3NzIj4mI3hhOwkuc3Qwe2ZpbGw6IzQyODVmNDt9JiN4YTsJLnN0MXtmaWxsOiM2NjlkZjY7fSYjeGE7CS5zdDJ7ZmlsbDojYWVjYmZhO30mI3hhOwk8L3N0eWxlPiYjeGE7CTxwYXRoIGNsYXNzPSJzdDEiIGQ9Ik0zIDMuOTlMMCA2LjQydjcuMTNsMyAyLjQ0eiIvPiYjeGE7CTxwYXRoIGNsYXNzPSJzdDAiIGQ9Ik0zIDMuOTlsLTMgNCAzLTJ6bS0zIDhsMyA0di0yeiIvPiYjeGE7CTxwYXRoIGNsYXNzPSJzdDIiIGQ9Ik0wIDE1Ljk5bDQgNCAyLTItNi02em0uMDEtOEw1Ljk5IDJsLTItMkwwIDMuOTl6Ii8+JiN4YTsJPHBhdGggY2xhc3M9InN0MSIgZD0iTTE3IDE2bDMtMi40MlY2LjQ0TDE3IDR6Ii8+JiN4YTsJPHBhdGggY2xhc3M9InN0MCIgZD0iTTE3IDE2bDMtNC0zIDJ6bTMtOGwtMy00djJ6Ii8+JiN4YTsJPGcgY2xhc3M9InN0MiI+JiN4YTsJCTxwYXRoIGQ9Ik0yMCA0bC00LTQtMiAyIDYgNnptLS4wMSA4bC01Ljk4IDUuOTkgMiAyTDIwIDE2eiIvPiYjeGE7CQk8Y2lyY2xlIGN4PSI2IiBjeT0iOS45OSIgcj0iMSIvPiYjeGE7CQk8Y2lyY2xlIGN4PSIxMCIgY3k9IjkuOTkiIHI9IjEiLz4mI3hhOwkJPGNpcmNsZSBjeD0iMTMuOTkiIGN5PSI5Ljk5IiByPSIxIi8+JiN4YTsJPC9nPiYjeGE7PC9zdmc+;" vertex="1" parent="jj8_yMQ8znHw3ZDIOY7E-1061">
          <mxGeometry width="30" height="24" relative="1" as="geometry">
            <mxPoint x="15" y="18" as="offset" />
          </mxGeometry>
        </mxCell>
        <mxCell id="jj8_yMQ8znHw3ZDIOY7E-1078" value="&lt;b&gt;Google &lt;/b&gt;Cloud Platform" style="fillColor=#F6F6F6;strokeColor=none;shadow=0;gradientColor=none;fontSize=14;align=left;spacing=10;fontColor=#717171;9E9E9E;verticalAlign=top;spacingTop=-4;fontStyle=0;spacingLeft=40;html=1;container=0;" vertex="1" parent="1">
          <mxGeometry x="780" y="500" width="247.56" height="170" as="geometry" />
        </mxCell>
        <mxCell id="jj8_yMQ8znHw3ZDIOY7E-1079" value="" style="shape=mxgraph.gcp2.google_cloud_platform;fillColor=#F6F6F6;strokeColor=none;shadow=0;gradientColor=none;" vertex="1" parent="1">
          <mxGeometry x="800" y="510" width="23" height="20" as="geometry">
            <mxPoint x="20" y="10" as="offset" />
          </mxGeometry>
        </mxCell>
        <mxCell id="jj8_yMQ8znHw3ZDIOY7E-1080" value="&amp;nbsp; Region x" style="html=1;align=left;verticalAlign=top;rounded=0;absoluteArcSize=1;arcSize=20;dashed=1;whiteSpace=wrap;" vertex="1" parent="1">
          <mxGeometry x="800" y="540" width="210" height="110" as="geometry" />
        </mxCell>
        <mxCell id="jj8_yMQ8znHw3ZDIOY7E-1081" value="" style="strokeColor=#dddddd;shadow=1;strokeWidth=1;rounded=1;absoluteArcSize=1;arcSize=2;" vertex="1" parent="1">
          <mxGeometry x="840" y="565" width="127.56" height="60" as="geometry" />
        </mxCell>
        <mxCell id="jj8_yMQ8znHw3ZDIOY7E-1082" value="Cloud&lt;br&gt;Function" style="editableCssRules=.*;html=1;fontColor=#999999;shape=image;verticalLabelPosition=middle;verticalAlign=middle;labelPosition=right;align=left;spacingLeft=20;part=1;points=[];imageAspect=0;image=data:image/svg+xml,PHN2ZyB4bWxucz0iaHR0cDovL3d3dy53My5vcmcvMjAwMC9zdmciIHhtbG5zOnY9Imh0dHBzOi8vdmVjdGEuaW8vbmFubyIgd2lkdGg9IjIwIiBoZWlnaHQ9IjE5Ljk4OTk5OTc3MTExODE2NCIgdmlld0JveD0iMCAwIDIwIDE5Ljk4OTk5OTc3MTExODE2NCI+JiN4YTsJPHN0eWxlIHR5cGU9InRleHQvY3NzIj4mI3hhOwkuc3Qwe2ZpbGw6IzQyODVmNDt9JiN4YTsJLnN0MXtmaWxsOiM2NjlkZjY7fSYjeGE7CS5zdDJ7ZmlsbDojYWVjYmZhO30mI3hhOwk8L3N0eWxlPiYjeGE7CTxwYXRoIGNsYXNzPSJzdDEiIGQ9Ik0zIDMuOTlMMCA2LjQydjcuMTNsMyAyLjQ0eiIvPiYjeGE7CTxwYXRoIGNsYXNzPSJzdDAiIGQ9Ik0zIDMuOTlsLTMgNCAzLTJ6bS0zIDhsMyA0di0yeiIvPiYjeGE7CTxwYXRoIGNsYXNzPSJzdDIiIGQ9Ik0wIDE1Ljk5bDQgNCAyLTItNi02em0uMDEtOEw1Ljk5IDJsLTItMkwwIDMuOTl6Ii8+JiN4YTsJPHBhdGggY2xhc3M9InN0MSIgZD0iTTE3IDE2bDMtMi40MlY2LjQ0TDE3IDR6Ii8+JiN4YTsJPHBhdGggY2xhc3M9InN0MCIgZD0iTTE3IDE2bDMtNC0zIDJ6bTMtOGwtMy00djJ6Ii8+JiN4YTsJPGcgY2xhc3M9InN0MiI+JiN4YTsJCTxwYXRoIGQ9Ik0yMCA0bC00LTQtMiAyIDYgNnptLS4wMSA4bC01Ljk4IDUuOTkgMiAyTDIwIDE2eiIvPiYjeGE7CQk8Y2lyY2xlIGN4PSI2IiBjeT0iOS45OSIgcj0iMSIvPiYjeGE7CQk8Y2lyY2xlIGN4PSIxMCIgY3k9IjkuOTkiIHI9IjEiLz4mI3hhOwkJPGNpcmNsZSBjeD0iMTMuOTkiIGN5PSI5Ljk5IiByPSIxIi8+JiN4YTsJPC9nPiYjeGE7PC9zdmc+;" vertex="1" parent="jj8_yMQ8znHw3ZDIOY7E-1081">
          <mxGeometry width="30" height="24" relative="1" as="geometry">
            <mxPoint x="15" y="18" as="offset" />
          </mxGeometry>
        </mxCell>
        <mxCell id="jj8_yMQ8znHw3ZDIOY7E-1083" value="" style="edgeStyle=none;orthogonalLoop=1;jettySize=auto;html=1;rounded=0;endArrow=none;startFill=0;" edge="1" parent="1">
          <mxGeometry width="80" relative="1" as="geometry">
            <mxPoint x="1080" y="820" as="sourcePoint" />
            <mxPoint x="1080" y="440" as="targetPoint" />
            <Array as="points" />
          </mxGeometry>
        </mxCell>
        <mxCell id="jj8_yMQ8znHw3ZDIOY7E-1084" value="" style="sketch=0;aspect=fixed;pointerEvents=1;shadow=0;dashed=0;html=1;strokeColor=none;labelPosition=center;verticalLabelPosition=bottom;verticalAlign=top;align=center;fillColor=#00188D;shape=mxgraph.azure.laptop" vertex="1" parent="1">
          <mxGeometry x="1120" y="720" width="133.34" height="80" as="geometry" />
        </mxCell>
        <mxCell id="jj8_yMQ8znHw3ZDIOY7E-1085" value="Python&lt;div&gt;VS Code&lt;/div&gt;&lt;div&gt;Git&lt;/div&gt;&lt;div&gt;gcloud&lt;/div&gt;" style="text;strokeColor=none;align=center;fillColor=none;html=1;verticalAlign=middle;whiteSpace=wrap;rounded=0;fontSize=9;" vertex="1" parent="1">
          <mxGeometry x="1130.67" y="740" width="70" height="20" as="geometry" />
        </mxCell>
        <mxCell id="jj8_yMQ8znHw3ZDIOY7E-1086" value="" style="group" connectable="0" vertex="1" parent="1">
          <mxGeometry x="1193" y="728" width="37.77000000000011" height="48" as="geometry" />
        </mxCell>
        <mxCell id="jj8_yMQ8znHw3ZDIOY7E-1087" value="" style="sketch=0;outlineConnect=0;fontColor=#232F3E;gradientColor=none;fillColor=#232F3D;strokeColor=none;dashed=0;verticalLabelPosition=bottom;verticalAlign=top;align=center;html=1;fontSize=12;fontStyle=0;aspect=fixed;pointerEvents=1;shape=mxgraph.aws4.source_code;" vertex="1" parent="jj8_yMQ8znHw3ZDIOY7E-1086">
          <mxGeometry x="10.000000000000114" y="10" width="27.77" height="38" as="geometry" />
        </mxCell>
        <mxCell id="jj8_yMQ8znHw3ZDIOY7E-1088" value="" style="whiteSpace=wrap;html=1;strokeColor=none;" vertex="1" parent="jj8_yMQ8znHw3ZDIOY7E-1086">
          <mxGeometry width="30" height="40" as="geometry" />
        </mxCell>
        <mxCell id="jj8_yMQ8znHw3ZDIOY7E-1089" value="" style="sketch=0;outlineConnect=0;fontColor=#232F3E;gradientColor=none;fillColor=#232F3D;strokeColor=none;dashed=0;verticalLabelPosition=bottom;verticalAlign=top;align=center;html=1;fontSize=12;fontStyle=0;aspect=fixed;pointerEvents=1;shape=mxgraph.aws4.source_code;" vertex="1" parent="jj8_yMQ8znHw3ZDIOY7E-1086">
          <mxGeometry x="1.1368683772161603e-13" width="27.77" height="38" as="geometry" />
        </mxCell>
        <mxCell id="jj8_yMQ8znHw3ZDIOY7E-1090" value="&lt;b&gt;Google &lt;/b&gt;Cloud Platform" style="fillColor=#F6F6F6;strokeColor=none;shadow=0;gradientColor=none;fontSize=14;align=left;spacing=10;fontColor=#717171;9E9E9E;verticalAlign=top;spacingTop=-4;fontStyle=0;spacingLeft=40;html=1;container=0;" vertex="1" parent="1">
          <mxGeometry x="1247" y="500" width="343" height="170" as="geometry" />
        </mxCell>
        <mxCell id="jj8_yMQ8znHw3ZDIOY7E-1091" value="" style="shape=mxgraph.gcp2.google_cloud_platform;fillColor=#F6F6F6;strokeColor=none;shadow=0;gradientColor=none;" vertex="1" parent="1">
          <mxGeometry x="1267" y="510" width="23" height="20" as="geometry">
            <mxPoint x="20" y="10" as="offset" />
          </mxGeometry>
        </mxCell>
        <mxCell id="jj8_yMQ8znHw3ZDIOY7E-1092" value="&amp;nbsp; Region x" style="html=1;align=left;verticalAlign=top;rounded=0;absoluteArcSize=1;arcSize=20;dashed=1;whiteSpace=wrap;" vertex="1" parent="1">
          <mxGeometry x="1355" y="540" width="210" height="110" as="geometry" />
        </mxCell>
        <mxCell id="jj8_yMQ8znHw3ZDIOY7E-1093" value="" style="strokeColor=#dddddd;shadow=1;strokeWidth=1;rounded=1;absoluteArcSize=1;arcSize=2;" vertex="1" parent="1">
          <mxGeometry x="1395" y="565" width="127.56" height="60" as="geometry" />
        </mxCell>
        <mxCell id="jj8_yMQ8znHw3ZDIOY7E-1094" value="Cloud&lt;br&gt;Function" style="editableCssRules=.*;html=1;fontColor=#999999;shape=image;verticalLabelPosition=middle;verticalAlign=middle;labelPosition=right;align=left;spacingLeft=20;part=1;points=[];imageAspect=0;image=data:image/svg+xml,PHN2ZyB4bWxucz0iaHR0cDovL3d3dy53My5vcmcvMjAwMC9zdmciIHhtbG5zOnY9Imh0dHBzOi8vdmVjdGEuaW8vbmFubyIgd2lkdGg9IjIwIiBoZWlnaHQ9IjE5Ljk4OTk5OTc3MTExODE2NCIgdmlld0JveD0iMCAwIDIwIDE5Ljk4OTk5OTc3MTExODE2NCI+JiN4YTsJPHN0eWxlIHR5cGU9InRleHQvY3NzIj4mI3hhOwkuc3Qwe2ZpbGw6IzQyODVmNDt9JiN4YTsJLnN0MXtmaWxsOiM2NjlkZjY7fSYjeGE7CS5zdDJ7ZmlsbDojYWVjYmZhO30mI3hhOwk8L3N0eWxlPiYjeGE7CTxwYXRoIGNsYXNzPSJzdDEiIGQ9Ik0zIDMuOTlMMCA2LjQydjcuMTNsMyAyLjQ0eiIvPiYjeGE7CTxwYXRoIGNsYXNzPSJzdDAiIGQ9Ik0zIDMuOTlsLTMgNCAzLTJ6bS0zIDhsMyA0di0yeiIvPiYjeGE7CTxwYXRoIGNsYXNzPSJzdDIiIGQ9Ik0wIDE1Ljk5bDQgNCAyLTItNi02em0uMDEtOEw1Ljk5IDJsLTItMkwwIDMuOTl6Ii8+JiN4YTsJPHBhdGggY2xhc3M9InN0MSIgZD0iTTE3IDE2bDMtMi40MlY2LjQ0TDE3IDR6Ii8+JiN4YTsJPHBhdGggY2xhc3M9InN0MCIgZD0iTTE3IDE2bDMtNC0zIDJ6bTMtOGwtMy00djJ6Ii8+JiN4YTsJPGcgY2xhc3M9InN0MiI+JiN4YTsJCTxwYXRoIGQ9Ik0yMCA0bC00LTQtMiAyIDYgNnptLS4wMSA4bC01Ljk4IDUuOTkgMiAyTDIwIDE2eiIvPiYjeGE7CQk8Y2lyY2xlIGN4PSI2IiBjeT0iOS45OSIgcj0iMSIvPiYjeGE7CQk8Y2lyY2xlIGN4PSIxMCIgY3k9IjkuOTkiIHI9IjEiLz4mI3hhOwkJPGNpcmNsZSBjeD0iMTMuOTkiIGN5PSI5Ljk5IiByPSIxIi8+JiN4YTsJPC9nPiYjeGE7PC9zdmc+;" vertex="1" parent="jj8_yMQ8znHw3ZDIOY7E-1093">
          <mxGeometry width="30" height="24" relative="1" as="geometry">
            <mxPoint x="15" y="18" as="offset" />
          </mxGeometry>
        </mxCell>
        <mxCell id="jj8_yMQ8znHw3ZDIOY7E-1095" value="Cloud&#xa;Build" style="sketch=0;html=1;verticalAlign=top;labelPosition=center;verticalLabelPosition=bottom;align=center;spacingTop=-6;fontSize=11;fontStyle=1;fontColor=#999999;shape=image;aspect=fixed;imageAspect=0;image=data:image/svg+xml,PHN2ZyB4bWxucz0iaHR0cDovL3d3dy53My5vcmcvMjAwMC9zdmciIHhtbG5zOnY9Imh0dHBzOi8vdmVjdGEuaW8vbmFubyIgd2lkdGg9IjE3LjMyOTk5OTkyMzcwNjA1NSIgaGVpZ2h0PSIxOS42MTAwMDA2MTAzNTE1NjIiIHZpZXdCb3g9IjAgMCAxNy4zMjk5OTk5MjM3MDYwNTUgMTkuNjEwMDAwNjEwMzUxNTYyIj4mI3hhOwk8c3R5bGUgdHlwZT0idGV4dC9jc3MiPiYjeGE7CS5zdDB7ZmlsbDojNDI4NWY0O30mI3hhOwkuc3Qxe2ZpbGw6IzY2OWRmNjt9JiN4YTsJLnN0MntmaWxsOiNhZWNiZmE7fSYjeGE7CTwvc3R5bGU+JiN4YTsJPHBhdGggY2xhc3M9InN0MCIgZD0iTTEyLjE4IDcuOThMMTEgNy4yOWwtMy41MiA2LjEgMS4xOC42OCAzLjUyLTIuMDN6IiBmaWxsPSIjNDI4NWY0Ii8+JiN4YTsJPHBhdGggY2xhc3M9InN0MSIgZD0iTTYuMzIgMTIuNzJsMy41My02LjA5LTEuMTktLjY5LTMuNTIgMi4wNHY0LjA2eiIgZmlsbD0iIzY2OWRmNiIvPiYjeGE7CTxwYXRoIGNsYXNzPSJzdDIiIGQ9Ik0zLjc1IDcuOThMMCA1LjgxdjkuMmw3Ljk3IDQuNnYtNC4zM2wtNC4yMi0yLjQ0em05LjEzLTEuMmwzLjc2LTIuMTdMOC42NiAwIC42OCA0LjYxbDMuNzYgMi4xNyA0LjIyLTIuNDR6TTkuMzUgMTkuNjFsNy45OC00LjZ2LTkuMmwtMy43NiAyLjE3djQuODZsLTQuMjIgMi40NHoiIGZpbGw9IiNhZWNiZmEiLz4mI3hhOzwvc3ZnPg==;" vertex="1" parent="1">
          <mxGeometry x="1267" y="574" width="36" height="42" as="geometry" />
        </mxCell>
        <mxCell id="jj8_yMQ8znHw3ZDIOY7E-1097" value="" style="edgeStyle=orthogonalEdgeStyle;orthogonalLoop=1;jettySize=auto;html=1;rounded=0;exitX=0.952;exitY=0.407;exitDx=0;exitDy=0;exitPerimeter=0;" edge="1" parent="1" source="jj8_yMQ8znHw3ZDIOY7E-1053" target="jj8_yMQ8znHw3ZDIOY7E-1061">
          <mxGeometry width="80" relative="1" as="geometry">
            <mxPoint x="470" y="750" as="sourcePoint" />
            <mxPoint x="550" y="750" as="targetPoint" />
          </mxGeometry>
        </mxCell>
        <mxCell id="jj8_yMQ8znHw3ZDIOY7E-1098" value="Deployed via CLI" style="edgeLabel;html=1;align=center;verticalAlign=middle;resizable=0;points=[];" connectable="0" vertex="1" parent="jj8_yMQ8znHw3ZDIOY7E-1097">
          <mxGeometry x="0.1521" y="-2" relative="1" as="geometry">
            <mxPoint y="-1" as="offset" />
          </mxGeometry>
        </mxCell>
        <mxCell id="jj8_yMQ8znHw3ZDIOY7E-1099" value="" style="edgeStyle=orthogonalEdgeStyle;orthogonalLoop=1;jettySize=auto;html=1;rounded=0;exitX=0.942;exitY=0.425;exitDx=0;exitDy=0;exitPerimeter=0;entryX=0.525;entryY=0.983;entryDx=0;entryDy=0;entryPerimeter=0;" edge="1" parent="1" source="jj8_yMQ8znHw3ZDIOY7E-1066" target="jj8_yMQ8znHw3ZDIOY7E-1081">
          <mxGeometry width="80" relative="1" as="geometry">
            <mxPoint x="854.0699999999999" y="798" as="sourcePoint" />
            <mxPoint x="953.0699999999999" y="670" as="targetPoint" />
          </mxGeometry>
        </mxCell>
        <mxCell id="jj8_yMQ8znHw3ZDIOY7E-1100" value="Deployed via CLI" style="edgeLabel;html=1;align=center;verticalAlign=middle;resizable=0;points=[];" connectable="0" vertex="1" parent="jj8_yMQ8znHw3ZDIOY7E-1099">
          <mxGeometry x="0.1521" y="-2" relative="1" as="geometry">
            <mxPoint y="-1" as="offset" />
          </mxGeometry>
        </mxCell>
        <mxCell id="jj8_yMQ8znHw3ZDIOY7E-1101" value="" style="edgeStyle=orthogonalEdgeStyle;orthogonalLoop=1;jettySize=auto;html=1;rounded=0;exitX=0.92;exitY=0.389;exitDx=0;exitDy=0;exitPerimeter=0;" edge="1" parent="1" source="jj8_yMQ8znHw3ZDIOY7E-1084">
          <mxGeometry width="80" relative="1" as="geometry">
            <mxPoint x="1290" y="800" as="sourcePoint" />
            <mxPoint x="1285" y="650" as="targetPoint" />
          </mxGeometry>
        </mxCell>
        <mxCell id="jj8_yMQ8znHw3ZDIOY7E-1102" value="Triggered via CLI" style="edgeLabel;html=1;align=center;verticalAlign=middle;resizable=0;points=[];" connectable="0" vertex="1" parent="jj8_yMQ8znHw3ZDIOY7E-1101">
          <mxGeometry x="0.1521" y="-2" relative="1" as="geometry">
            <mxPoint y="-1" as="offset" />
          </mxGeometry>
        </mxCell>
        <mxCell id="jj8_yMQ8znHw3ZDIOY7E-1103" value="" style="edgeStyle=orthogonalEdgeStyle;orthogonalLoop=1;jettySize=auto;html=1;rounded=0;exitX=0.984;exitY=0.548;exitDx=0;exitDy=0;exitPerimeter=0;" edge="1" parent="1" source="jj8_yMQ8znHw3ZDIOY7E-1095" target="jj8_yMQ8znHw3ZDIOY7E-1093">
          <mxGeometry width="80" relative="1" as="geometry">
            <mxPoint x="1410" y="791" as="sourcePoint" />
            <mxPoint x="1452" y="690" as="targetPoint" />
          </mxGeometry>
        </mxCell>
        <mxCell id="jj8_yMQ8znHw3ZDIOY7E-1104" value="Deploys" style="edgeLabel;html=1;align=center;verticalAlign=middle;resizable=0;points=[];" connectable="0" vertex="1" parent="jj8_yMQ8znHw3ZDIOY7E-1103">
          <mxGeometry x="0.1521" y="-2" relative="1" as="geometry">
            <mxPoint y="-1" as="offset" />
          </mxGeometry>
        </mxCell>
        <mxCell id="jj8_yMQ8znHw3ZDIOY7E-1121" value="" style="edgeStyle=none;orthogonalLoop=1;jettySize=auto;html=1;rounded=0;endArrow=none;startFill=0;" edge="1" parent="1">
          <mxGeometry width="80" relative="1" as="geometry">
            <mxPoint x="1640" y="820" as="sourcePoint" />
            <mxPoint x="1640" y="440" as="targetPoint" />
            <Array as="points" />
          </mxGeometry>
        </mxCell>
        <mxCell id="jj8_yMQ8znHw3ZDIOY7E-1122" value="" style="sketch=0;aspect=fixed;pointerEvents=1;shadow=0;dashed=0;html=1;strokeColor=none;labelPosition=center;verticalLabelPosition=bottom;verticalAlign=top;align=center;fillColor=#00188D;shape=mxgraph.azure.laptop" vertex="1" parent="1">
          <mxGeometry x="1680" y="720" width="133.34" height="80" as="geometry" />
        </mxCell>
        <mxCell id="jj8_yMQ8znHw3ZDIOY7E-1123" value="Python&lt;div&gt;VS Code&lt;/div&gt;&lt;div&gt;Git&lt;/div&gt;&lt;div&gt;gcloud&lt;/div&gt;" style="text;strokeColor=none;align=center;fillColor=none;html=1;verticalAlign=middle;whiteSpace=wrap;rounded=0;fontSize=9;" vertex="1" parent="1">
          <mxGeometry x="1690.67" y="740" width="70" height="20" as="geometry" />
        </mxCell>
        <mxCell id="jj8_yMQ8znHw3ZDIOY7E-1124" value="" style="group" connectable="0" vertex="1" parent="1">
          <mxGeometry x="1753" y="728" width="37.77000000000011" height="48" as="geometry" />
        </mxCell>
        <mxCell id="jj8_yMQ8znHw3ZDIOY7E-1125" value="" style="sketch=0;outlineConnect=0;fontColor=#232F3E;gradientColor=none;fillColor=#232F3D;strokeColor=none;dashed=0;verticalLabelPosition=bottom;verticalAlign=top;align=center;html=1;fontSize=12;fontStyle=0;aspect=fixed;pointerEvents=1;shape=mxgraph.aws4.source_code;" vertex="1" parent="jj8_yMQ8znHw3ZDIOY7E-1124">
          <mxGeometry x="10.000000000000114" y="10" width="27.77" height="38" as="geometry" />
        </mxCell>
        <mxCell id="jj8_yMQ8znHw3ZDIOY7E-1126" value="" style="whiteSpace=wrap;html=1;strokeColor=none;" vertex="1" parent="jj8_yMQ8znHw3ZDIOY7E-1124">
          <mxGeometry width="30" height="40" as="geometry" />
        </mxCell>
        <mxCell id="jj8_yMQ8znHw3ZDIOY7E-1127" value="" style="sketch=0;outlineConnect=0;fontColor=#232F3E;gradientColor=none;fillColor=#232F3D;strokeColor=none;dashed=0;verticalLabelPosition=bottom;verticalAlign=top;align=center;html=1;fontSize=12;fontStyle=0;aspect=fixed;pointerEvents=1;shape=mxgraph.aws4.source_code;" vertex="1" parent="jj8_yMQ8znHw3ZDIOY7E-1124">
          <mxGeometry x="1.1368683772161603e-13" width="27.77" height="38" as="geometry" />
        </mxCell>
        <mxCell id="jj8_yMQ8znHw3ZDIOY7E-1128" value="&lt;b&gt;Google &lt;/b&gt;Cloud Platform" style="fillColor=#F6F6F6;strokeColor=none;shadow=0;gradientColor=none;fontSize=14;align=left;spacing=10;fontColor=#717171;9E9E9E;verticalAlign=top;spacingTop=-4;fontStyle=0;spacingLeft=40;html=1;container=0;" vertex="1" parent="1">
          <mxGeometry x="1807" y="440" width="473" height="260" as="geometry" />
        </mxCell>
        <mxCell id="jj8_yMQ8znHw3ZDIOY7E-1129" value="" style="shape=mxgraph.gcp2.google_cloud_platform;fillColor=#F6F6F6;strokeColor=none;shadow=0;gradientColor=none;" vertex="1" parent="1">
          <mxGeometry x="1827" y="450" width="23" height="20" as="geometry">
            <mxPoint x="20" y="10" as="offset" />
          </mxGeometry>
        </mxCell>
        <mxCell id="jj8_yMQ8znHw3ZDIOY7E-1130" value="&amp;nbsp; Region x" style="html=1;align=left;verticalAlign=top;rounded=0;absoluteArcSize=1;arcSize=20;dashed=1;whiteSpace=wrap;" vertex="1" parent="1">
          <mxGeometry x="1890" y="480" width="370" height="150" as="geometry" />
        </mxCell>
        <mxCell id="jj8_yMQ8znHw3ZDIOY7E-1133" value="Cloud&#xa;Build" style="sketch=0;html=1;verticalAlign=top;labelPosition=center;verticalLabelPosition=bottom;align=center;spacingTop=-6;fontSize=11;fontStyle=1;fontColor=#999999;shape=image;aspect=fixed;imageAspect=0;image=data:image/svg+xml,PHN2ZyB4bWxucz0iaHR0cDovL3d3dy53My5vcmcvMjAwMC9zdmciIHhtbG5zOnY9Imh0dHBzOi8vdmVjdGEuaW8vbmFubyIgd2lkdGg9IjE3LjMyOTk5OTkyMzcwNjA1NSIgaGVpZ2h0PSIxOS42MTAwMDA2MTAzNTE1NjIiIHZpZXdCb3g9IjAgMCAxNy4zMjk5OTk5MjM3MDYwNTUgMTkuNjEwMDAwNjEwMzUxNTYyIj4mI3hhOwk8c3R5bGUgdHlwZT0idGV4dC9jc3MiPiYjeGE7CS5zdDB7ZmlsbDojNDI4NWY0O30mI3hhOwkuc3Qxe2ZpbGw6IzY2OWRmNjt9JiN4YTsJLnN0MntmaWxsOiNhZWNiZmE7fSYjeGE7CTwvc3R5bGU+JiN4YTsJPHBhdGggY2xhc3M9InN0MCIgZD0iTTEyLjE4IDcuOThMMTEgNy4yOWwtMy41MiA2LjEgMS4xOC42OCAzLjUyLTIuMDN6IiBmaWxsPSIjNDI4NWY0Ii8+JiN4YTsJPHBhdGggY2xhc3M9InN0MSIgZD0iTTYuMzIgMTIuNzJsMy41My02LjA5LTEuMTktLjY5LTMuNTIgMi4wNHY0LjA2eiIgZmlsbD0iIzY2OWRmNiIvPiYjeGE7CTxwYXRoIGNsYXNzPSJzdDIiIGQ9Ik0zLjc1IDcuOThMMCA1LjgxdjkuMmw3Ljk3IDQuNnYtNC4zM2wtNC4yMi0yLjQ0em05LjEzLTEuMmwzLjc2LTIuMTdMOC42NiAwIC42OCA0LjYxbDMuNzYgMi4xNyA0LjIyLTIuNDR6TTkuMzUgMTkuNjFsNy45OC00LjZ2LTkuMmwtMy43NiAyLjE3djQuODZsLTQuMjIgMi40NHoiIGZpbGw9IiNhZWNiZmEiLz4mI3hhOzwvc3ZnPg==;" vertex="1" parent="1">
          <mxGeometry x="1827" y="574" width="36" height="42" as="geometry" />
        </mxCell>
        <mxCell id="jj8_yMQ8znHw3ZDIOY7E-1134" value="" style="edgeStyle=orthogonalEdgeStyle;orthogonalLoop=1;jettySize=auto;html=1;rounded=0;exitX=0.92;exitY=0.389;exitDx=0;exitDy=0;exitPerimeter=0;" edge="1" parent="1" source="jj8_yMQ8znHw3ZDIOY7E-1122">
          <mxGeometry width="80" relative="1" as="geometry">
            <mxPoint x="1850" y="800" as="sourcePoint" />
            <mxPoint x="1845" y="650" as="targetPoint" />
          </mxGeometry>
        </mxCell>
        <mxCell id="jj8_yMQ8znHw3ZDIOY7E-1135" value="Triggered via CLI" style="edgeLabel;html=1;align=center;verticalAlign=middle;resizable=0;points=[];" connectable="0" vertex="1" parent="jj8_yMQ8znHw3ZDIOY7E-1134">
          <mxGeometry x="0.1521" y="-2" relative="1" as="geometry">
            <mxPoint y="-1" as="offset" />
          </mxGeometry>
        </mxCell>
        <mxCell id="jj8_yMQ8znHw3ZDIOY7E-1136" value="" style="edgeStyle=orthogonalEdgeStyle;orthogonalLoop=1;jettySize=auto;html=1;rounded=0;exitX=0.984;exitY=0.548;exitDx=0;exitDy=0;exitPerimeter=0;" edge="1" parent="1" source="jj8_yMQ8znHw3ZDIOY7E-1133" target="jj8_yMQ8znHw3ZDIOY7E-1140">
          <mxGeometry width="80" relative="1" as="geometry">
            <mxPoint x="1970" y="791" as="sourcePoint" />
            <mxPoint x="1955" y="594.9999999999998" as="targetPoint" />
            <Array as="points">
              <mxPoint x="2000" y="597" />
            </Array>
          </mxGeometry>
        </mxCell>
        <mxCell id="jj8_yMQ8znHw3ZDIOY7E-1137" value="Publishes Artifact" style="edgeLabel;html=1;align=center;verticalAlign=middle;resizable=0;points=[];" connectable="0" vertex="1" parent="jj8_yMQ8znHw3ZDIOY7E-1136">
          <mxGeometry x="0.1521" y="-2" relative="1" as="geometry">
            <mxPoint x="-15" y="-1" as="offset" />
          </mxGeometry>
        </mxCell>
        <mxCell id="jj8_yMQ8znHw3ZDIOY7E-1138" value="" style="strokeColor=#dddddd;shadow=1;strokeWidth=1;rounded=1;absoluteArcSize=1;arcSize=2;" vertex="1" parent="1">
          <mxGeometry x="2100" y="514" width="130" height="60" as="geometry" />
        </mxCell>
        <mxCell id="jj8_yMQ8znHw3ZDIOY7E-1139" value="Cloud Run" style="editableCssRules=.*;html=1;fontColor=#999999;shape=image;verticalLabelPosition=middle;verticalAlign=middle;labelPosition=right;align=left;spacingLeft=20;part=1;points=[];imageAspect=0;image=data:image/svg+xml,PHN2ZyB4bWxucz0iaHR0cDovL3d3dy53My5vcmcvMjAwMC9zdmciIHhtbG5zOnY9Imh0dHBzOi8vdmVjdGEuaW8vbmFubyIgd2lkdGg9IjM2NS40NjQ5OTY3NzA0MjQ5MyIgaGVpZ2h0PSIzNzkuMjIyOTk0NDYzNTc3OTUiIHZpZXdCb3g9IjAgMCA5Ni42OTU5OTkxNDU1MDc4MSAxMDAuMzM1OTk4NTM1MTU2MjUiPiYjeGE7PHN0eWxlIHR5cGU9InRleHQvY3NzIj4mI3hhOwkuc3Qwe2ZpbGw6IzQyODVmNDt9JiN4YTsJLnN0MXtmaWxsOiNhZWNiZmE7fSYjeGE7PC9zdHlsZT4mI3hhOwk8cGF0aCBjbGFzcz0ic3QwIiBkPSJNMjkuNzk0IDEwMC4zMzZMNDYuOTIgNTAuMTY4aDQ5Ljc3NnpNMCA5OS42NzFsMTIuOTc2LTQ5LjUwMkgyOS4yMkwxNi44OTcgOTIuMDU0eiIvPiYjeGE7CTxwYXRoIGNsYXNzPSJzdDEiIGQ9Ik0yOS43OTQgMEw0Ni45MiA1MC4xNjhoNDkuNzc2ek0wIC42NjZsMTIuOTc2IDQ5LjUwMkgyOS4yMkwxNi44OTcgOC4yODN6Ii8+JiN4YTs8L3N2Zz4=;" vertex="1" parent="jj8_yMQ8znHw3ZDIOY7E-1138">
          <mxGeometry width="30" height="30" relative="1" as="geometry">
            <mxPoint x="15" y="15" as="offset" />
          </mxGeometry>
        </mxCell>
        <mxCell id="jj8_yMQ8znHw3ZDIOY7E-1140" value="" style="strokeColor=#dddddd;shadow=1;strokeWidth=1;rounded=1;absoluteArcSize=1;arcSize=2;" vertex="1" parent="1">
          <mxGeometry x="1930" y="514" width="130" height="60" as="geometry" />
        </mxCell>
        <mxCell id="jj8_yMQ8znHw3ZDIOY7E-1141" value="Artifact&#xa;Registry" style="editableCssRules=.*;html=1;fontColor=#999999;shape=image;verticalLabelPosition=middle;verticalAlign=middle;labelPosition=right;align=left;spacingLeft=20;part=1;points=[];imageAspect=0;image=data:image/svg+xml,PHN2ZyB4bWxucz0iaHR0cDovL3d3dy53My5vcmcvMjAwMC9zdmciIHhtbG5zOnY9Imh0dHBzOi8vdmVjdGEuaW8vbmFubyIgd2lkdGg9IjIxLjk5OTAwMDU0OTMxNjQwNiIgaGVpZ2h0PSIyMC4zOTM5OTkwOTk3MzE0NDUiIHZpZXdCb3g9IjAgMCAyMS45OTkwMDA1NDkzMTY0MDYgMjAuMzkzOTk5MDk5NzMxNDQ1Ij4mI3hhOwk8c3R5bGUgdHlwZT0idGV4dC9jc3MiPiYjeGE7CS5zdDB7ZmlsbDojNDI4NWY0O2ZpbGwtcnVsZTpldmVub2RkfSYjeGE7CTwvc3R5bGU+JiN4YTsJPHBhdGggY2xhc3M9InN0MCIgZD0iTTUgMHYyLjQ1OEwxLjk5OSA0LjE5N3YxMi4wMUw1IDE3LjkzOHYyLjQ1NmwtNS0yLjg4N1YyLjg4NnptMTIgMGw0Ljk5OSAyLjg4NnYxNC42MjFMMTcgMjAuMzk0di0yLjQ1NmwzLTEuNzMxVjQuMTk3bC0zLTEuNzM5em0tNi4wMTYgNi42NzNsMi45NDctMS42NDYtMi45NDctMS42NDYtMi45NDcgMS42NDZ6bTMuMjY4LTEuMDk2bC0yLjg3MSAxLjY3OHYzLjI4N2wyLjg3MS0xLjY3NnpNNy43NzMgOC44NjZsMi44NzEgMS42NzRWNy4yNTZMNy43NzMgNS41Nzd6bS0uMjEyIDMuODc4bDIuODItMS42NDYtMi44Mi0xLjY0Ni0yLjgyIDEuNjQ2em0zLjEzMi0xLjA5OGwtMi44NzEgMS42Nzh2My4yODdsMi44NzEtMS42NzZ6bS02LjI2NCAzLjI4OUw3LjMgMTYuNjA5di0zLjI4NWwtMi44NzEtMS42Nzl6bTEwLjAyOS0yLjE5MWwyLjgyLTEuNjQ2LTIuODItMS42NDYtMi44MiAxLjY0NnptMy4xMzItMS4wOThsLTIuODcxIDEuNjc4djMuMjg3bDIuODcxLTEuNjc2em0tNi4yNjQgMy4yODlsMi44NzEgMS42NzR2LTMuMjg1bC0yLjg3MS0xLjY3OXoiLz4mI3hhOzwvc3ZnPg==;" vertex="1" parent="jj8_yMQ8znHw3ZDIOY7E-1140">
          <mxGeometry width="30" height="27" relative="1" as="geometry">
            <mxPoint x="15" y="16" as="offset" />
          </mxGeometry>
        </mxCell>
        <mxCell id="jj8_yMQ8znHw3ZDIOY7E-1142" value="" style="edgeStyle=orthogonalEdgeStyle;orthogonalLoop=1;jettySize=auto;html=1;rounded=0;exitX=0.924;exitY=0.755;exitDx=0;exitDy=0;exitPerimeter=0;entryX=0.527;entryY=0.998;entryDx=0;entryDy=0;entryPerimeter=0;" edge="1" parent="1" source="jj8_yMQ8znHw3ZDIOY7E-1133" target="jj8_yMQ8znHw3ZDIOY7E-1138">
          <mxGeometry width="80" relative="1" as="geometry">
            <mxPoint x="1872" y="607" as="sourcePoint" />
            <mxPoint x="2010" y="584" as="targetPoint" />
            <Array as="points">
              <mxPoint x="1860" y="607" />
              <mxPoint x="2169" y="607" />
              <mxPoint x="2169" y="574" />
            </Array>
          </mxGeometry>
        </mxCell>
        <mxCell id="jj8_yMQ8znHw3ZDIOY7E-1143" value="Deploys Artifact" style="edgeLabel;html=1;align=center;verticalAlign=middle;resizable=0;points=[];" connectable="0" vertex="1" parent="jj8_yMQ8znHw3ZDIOY7E-1142">
          <mxGeometry x="0.1521" y="-2" relative="1" as="geometry">
            <mxPoint x="18" y="-1" as="offset" />
          </mxGeometry>
        </mxCell>
        <mxCell id="jj8_yMQ8znHw3ZDIOY7E-1144" value="" style="edgeStyle=none;orthogonalLoop=1;jettySize=auto;html=1;rounded=0;endArrow=none;startFill=0;" edge="1" parent="1">
          <mxGeometry width="80" relative="1" as="geometry">
            <mxPoint x="2330" y="820" as="sourcePoint" />
            <mxPoint x="2330" y="440" as="targetPoint" />
            <Array as="points" />
          </mxGeometry>
        </mxCell>
        <mxCell id="jj8_yMQ8znHw3ZDIOY7E-1145" value="" style="sketch=0;aspect=fixed;pointerEvents=1;shadow=0;dashed=0;html=1;strokeColor=none;labelPosition=center;verticalLabelPosition=bottom;verticalAlign=top;align=center;fillColor=#00188D;shape=mxgraph.azure.laptop" vertex="1" parent="1">
          <mxGeometry x="2370" y="720" width="133.34" height="80" as="geometry" />
        </mxCell>
        <mxCell id="jj8_yMQ8znHw3ZDIOY7E-1146" value="Python&lt;div&gt;VS Code&lt;/div&gt;&lt;div&gt;Git&lt;/div&gt;&lt;div&gt;gcloud&lt;/div&gt;" style="text;strokeColor=none;align=center;fillColor=none;html=1;verticalAlign=middle;whiteSpace=wrap;rounded=0;fontSize=9;" vertex="1" parent="1">
          <mxGeometry x="2380.67" y="740" width="70" height="20" as="geometry" />
        </mxCell>
        <mxCell id="jj8_yMQ8znHw3ZDIOY7E-1147" value="" style="group" connectable="0" vertex="1" parent="1">
          <mxGeometry x="2443" y="728" width="37.77000000000011" height="48" as="geometry" />
        </mxCell>
        <mxCell id="jj8_yMQ8znHw3ZDIOY7E-1148" value="" style="sketch=0;outlineConnect=0;fontColor=#232F3E;gradientColor=none;fillColor=#232F3D;strokeColor=none;dashed=0;verticalLabelPosition=bottom;verticalAlign=top;align=center;html=1;fontSize=12;fontStyle=0;aspect=fixed;pointerEvents=1;shape=mxgraph.aws4.source_code;" vertex="1" parent="jj8_yMQ8znHw3ZDIOY7E-1147">
          <mxGeometry x="10.000000000000114" y="10" width="27.77" height="38" as="geometry" />
        </mxCell>
        <mxCell id="jj8_yMQ8znHw3ZDIOY7E-1149" value="" style="whiteSpace=wrap;html=1;strokeColor=none;" vertex="1" parent="jj8_yMQ8znHw3ZDIOY7E-1147">
          <mxGeometry width="30" height="40" as="geometry" />
        </mxCell>
        <mxCell id="jj8_yMQ8znHw3ZDIOY7E-1150" value="" style="sketch=0;outlineConnect=0;fontColor=#232F3E;gradientColor=none;fillColor=#232F3D;strokeColor=none;dashed=0;verticalLabelPosition=bottom;verticalAlign=top;align=center;html=1;fontSize=12;fontStyle=0;aspect=fixed;pointerEvents=1;shape=mxgraph.aws4.source_code;" vertex="1" parent="jj8_yMQ8znHw3ZDIOY7E-1147">
          <mxGeometry x="1.1368683772161603e-13" width="27.77" height="38" as="geometry" />
        </mxCell>
        <mxCell id="jj8_yMQ8znHw3ZDIOY7E-1151" value="&lt;b&gt;Google &lt;/b&gt;Cloud Platform" style="fillColor=#F6F6F6;strokeColor=none;shadow=0;gradientColor=none;fontSize=14;align=left;spacing=10;fontColor=#717171;9E9E9E;verticalAlign=top;spacingTop=-4;fontStyle=0;spacingLeft=40;html=1;container=0;" vertex="1" parent="1">
          <mxGeometry x="2660" y="440" width="473" height="260" as="geometry" />
        </mxCell>
        <mxCell id="jj8_yMQ8znHw3ZDIOY7E-1152" value="" style="shape=mxgraph.gcp2.google_cloud_platform;fillColor=#F6F6F6;strokeColor=none;shadow=0;gradientColor=none;" vertex="1" parent="1">
          <mxGeometry x="2680" y="450" width="23" height="20" as="geometry">
            <mxPoint x="20" y="10" as="offset" />
          </mxGeometry>
        </mxCell>
        <mxCell id="jj8_yMQ8znHw3ZDIOY7E-1153" value="&amp;nbsp; Region x" style="html=1;align=left;verticalAlign=top;rounded=0;absoluteArcSize=1;arcSize=20;dashed=1;whiteSpace=wrap;" vertex="1" parent="1">
          <mxGeometry x="2743" y="480" width="370" height="150" as="geometry" />
        </mxCell>
        <mxCell id="jj8_yMQ8znHw3ZDIOY7E-1154" value="Cloud&#xa;Build" style="sketch=0;html=1;verticalAlign=top;labelPosition=center;verticalLabelPosition=bottom;align=center;spacingTop=-6;fontSize=11;fontStyle=1;fontColor=#999999;shape=image;aspect=fixed;imageAspect=0;image=data:image/svg+xml,PHN2ZyB4bWxucz0iaHR0cDovL3d3dy53My5vcmcvMjAwMC9zdmciIHhtbG5zOnY9Imh0dHBzOi8vdmVjdGEuaW8vbmFubyIgd2lkdGg9IjE3LjMyOTk5OTkyMzcwNjA1NSIgaGVpZ2h0PSIxOS42MTAwMDA2MTAzNTE1NjIiIHZpZXdCb3g9IjAgMCAxNy4zMjk5OTk5MjM3MDYwNTUgMTkuNjEwMDAwNjEwMzUxNTYyIj4mI3hhOwk8c3R5bGUgdHlwZT0idGV4dC9jc3MiPiYjeGE7CS5zdDB7ZmlsbDojNDI4NWY0O30mI3hhOwkuc3Qxe2ZpbGw6IzY2OWRmNjt9JiN4YTsJLnN0MntmaWxsOiNhZWNiZmE7fSYjeGE7CTwvc3R5bGU+JiN4YTsJPHBhdGggY2xhc3M9InN0MCIgZD0iTTEyLjE4IDcuOThMMTEgNy4yOWwtMy41MiA2LjEgMS4xOC42OCAzLjUyLTIuMDN6IiBmaWxsPSIjNDI4NWY0Ii8+JiN4YTsJPHBhdGggY2xhc3M9InN0MSIgZD0iTTYuMzIgMTIuNzJsMy41My02LjA5LTEuMTktLjY5LTMuNTIgMi4wNHY0LjA2eiIgZmlsbD0iIzY2OWRmNiIvPiYjeGE7CTxwYXRoIGNsYXNzPSJzdDIiIGQ9Ik0zLjc1IDcuOThMMCA1LjgxdjkuMmw3Ljk3IDQuNnYtNC4zM2wtNC4yMi0yLjQ0em05LjEzLTEuMmwzLjc2LTIuMTdMOC42NiAwIC42OCA0LjYxbDMuNzYgMi4xNyA0LjIyLTIuNDR6TTkuMzUgMTkuNjFsNy45OC00LjZ2LTkuMmwtMy43NiAyLjE3djQuODZsLTQuMjIgMi40NHoiIGZpbGw9IiNhZWNiZmEiLz4mI3hhOzwvc3ZnPg==;" vertex="1" parent="1">
          <mxGeometry x="2680" y="574" width="36" height="42" as="geometry" />
        </mxCell>
        <mxCell id="jj8_yMQ8znHw3ZDIOY7E-1155" value="" style="edgeStyle=orthogonalEdgeStyle;orthogonalLoop=1;jettySize=auto;html=1;rounded=0;exitX=0.92;exitY=0.389;exitDx=0;exitDy=0;exitPerimeter=0;" edge="1" parent="1" source="jj8_yMQ8znHw3ZDIOY7E-1145" target="jj8_yMQ8znHw3ZDIOY7E-1165">
          <mxGeometry width="80" relative="1" as="geometry">
            <mxPoint x="2540" y="800" as="sourcePoint" />
            <mxPoint x="2535" y="650" as="targetPoint" />
            <Array as="points">
              <mxPoint x="2538" y="751" />
            </Array>
          </mxGeometry>
        </mxCell>
        <mxCell id="jj8_yMQ8znHw3ZDIOY7E-1156" value="Triggered via push to GitHub repo" style="edgeLabel;html=1;align=center;verticalAlign=middle;resizable=0;points=[];" connectable="0" vertex="1" parent="jj8_yMQ8znHw3ZDIOY7E-1155">
          <mxGeometry x="0.1521" y="-2" relative="1" as="geometry">
            <mxPoint y="-21" as="offset" />
          </mxGeometry>
        </mxCell>
        <mxCell id="jj8_yMQ8znHw3ZDIOY7E-1157" value="" style="edgeStyle=orthogonalEdgeStyle;orthogonalLoop=1;jettySize=auto;html=1;rounded=0;exitX=0.984;exitY=0.548;exitDx=0;exitDy=0;exitPerimeter=0;" edge="1" parent="1" source="jj8_yMQ8znHw3ZDIOY7E-1154" target="jj8_yMQ8znHw3ZDIOY7E-1161">
          <mxGeometry width="80" relative="1" as="geometry">
            <mxPoint x="2823" y="791" as="sourcePoint" />
            <mxPoint x="2808" y="594.9999999999998" as="targetPoint" />
            <Array as="points">
              <mxPoint x="2853" y="597" />
            </Array>
          </mxGeometry>
        </mxCell>
        <mxCell id="jj8_yMQ8znHw3ZDIOY7E-1158" value="Publishes Artifact" style="edgeLabel;html=1;align=center;verticalAlign=middle;resizable=0;points=[];" connectable="0" vertex="1" parent="jj8_yMQ8znHw3ZDIOY7E-1157">
          <mxGeometry x="0.1521" y="-2" relative="1" as="geometry">
            <mxPoint x="-15" y="-1" as="offset" />
          </mxGeometry>
        </mxCell>
        <mxCell id="jj8_yMQ8znHw3ZDIOY7E-1159" value="" style="strokeColor=#dddddd;shadow=1;strokeWidth=1;rounded=1;absoluteArcSize=1;arcSize=2;" vertex="1" parent="1">
          <mxGeometry x="2953" y="514" width="130" height="60" as="geometry" />
        </mxCell>
        <mxCell id="jj8_yMQ8znHw3ZDIOY7E-1160" value="Cloud Run" style="editableCssRules=.*;html=1;fontColor=#999999;shape=image;verticalLabelPosition=middle;verticalAlign=middle;labelPosition=right;align=left;spacingLeft=20;part=1;points=[];imageAspect=0;image=data:image/svg+xml,PHN2ZyB4bWxucz0iaHR0cDovL3d3dy53My5vcmcvMjAwMC9zdmciIHhtbG5zOnY9Imh0dHBzOi8vdmVjdGEuaW8vbmFubyIgd2lkdGg9IjM2NS40NjQ5OTY3NzA0MjQ5MyIgaGVpZ2h0PSIzNzkuMjIyOTk0NDYzNTc3OTUiIHZpZXdCb3g9IjAgMCA5Ni42OTU5OTkxNDU1MDc4MSAxMDAuMzM1OTk4NTM1MTU2MjUiPiYjeGE7PHN0eWxlIHR5cGU9InRleHQvY3NzIj4mI3hhOwkuc3Qwe2ZpbGw6IzQyODVmNDt9JiN4YTsJLnN0MXtmaWxsOiNhZWNiZmE7fSYjeGE7PC9zdHlsZT4mI3hhOwk8cGF0aCBjbGFzcz0ic3QwIiBkPSJNMjkuNzk0IDEwMC4zMzZMNDYuOTIgNTAuMTY4aDQ5Ljc3NnpNMCA5OS42NzFsMTIuOTc2LTQ5LjUwMkgyOS4yMkwxNi44OTcgOTIuMDU0eiIvPiYjeGE7CTxwYXRoIGNsYXNzPSJzdDEiIGQ9Ik0yOS43OTQgMEw0Ni45MiA1MC4xNjhoNDkuNzc2ek0wIC42NjZsMTIuOTc2IDQ5LjUwMkgyOS4yMkwxNi44OTcgOC4yODN6Ii8+JiN4YTs8L3N2Zz4=;" vertex="1" parent="jj8_yMQ8znHw3ZDIOY7E-1159">
          <mxGeometry width="30" height="30" relative="1" as="geometry">
            <mxPoint x="15" y="15" as="offset" />
          </mxGeometry>
        </mxCell>
        <mxCell id="jj8_yMQ8znHw3ZDIOY7E-1161" value="" style="strokeColor=#dddddd;shadow=1;strokeWidth=1;rounded=1;absoluteArcSize=1;arcSize=2;" vertex="1" parent="1">
          <mxGeometry x="2783" y="514" width="130" height="60" as="geometry" />
        </mxCell>
        <mxCell id="jj8_yMQ8znHw3ZDIOY7E-1162" value="Artifact&#xa;Registry" style="editableCssRules=.*;html=1;fontColor=#999999;shape=image;verticalLabelPosition=middle;verticalAlign=middle;labelPosition=right;align=left;spacingLeft=20;part=1;points=[];imageAspect=0;image=data:image/svg+xml,PHN2ZyB4bWxucz0iaHR0cDovL3d3dy53My5vcmcvMjAwMC9zdmciIHhtbG5zOnY9Imh0dHBzOi8vdmVjdGEuaW8vbmFubyIgd2lkdGg9IjIxLjk5OTAwMDU0OTMxNjQwNiIgaGVpZ2h0PSIyMC4zOTM5OTkwOTk3MzE0NDUiIHZpZXdCb3g9IjAgMCAyMS45OTkwMDA1NDkzMTY0MDYgMjAuMzkzOTk5MDk5NzMxNDQ1Ij4mI3hhOwk8c3R5bGUgdHlwZT0idGV4dC9jc3MiPiYjeGE7CS5zdDB7ZmlsbDojNDI4NWY0O2ZpbGwtcnVsZTpldmVub2RkfSYjeGE7CTwvc3R5bGU+JiN4YTsJPHBhdGggY2xhc3M9InN0MCIgZD0iTTUgMHYyLjQ1OEwxLjk5OSA0LjE5N3YxMi4wMUw1IDE3LjkzOHYyLjQ1NmwtNS0yLjg4N1YyLjg4NnptMTIgMGw0Ljk5OSAyLjg4NnYxNC42MjFMMTcgMjAuMzk0di0yLjQ1NmwzLTEuNzMxVjQuMTk3bC0zLTEuNzM5em0tNi4wMTYgNi42NzNsMi45NDctMS42NDYtMi45NDctMS42NDYtMi45NDcgMS42NDZ6bTMuMjY4LTEuMDk2bC0yLjg3MSAxLjY3OHYzLjI4N2wyLjg3MS0xLjY3NnpNNy43NzMgOC44NjZsMi44NzEgMS42NzRWNy4yNTZMNy43NzMgNS41Nzd6bS0uMjEyIDMuODc4bDIuODItMS42NDYtMi44Mi0xLjY0Ni0yLjgyIDEuNjQ2em0zLjEzMi0xLjA5OGwtMi44NzEgMS42Nzh2My4yODdsMi44NzEtMS42NzZ6bS02LjI2NCAzLjI4OUw3LjMgMTYuNjA5di0zLjI4NWwtMi44NzEtMS42Nzl6bTEwLjAyOS0yLjE5MWwyLjgyLTEuNjQ2LTIuODItMS42NDYtMi44MiAxLjY0NnptMy4xMzItMS4wOThsLTIuODcxIDEuNjc4djMuMjg3bDIuODcxLTEuNjc2em0tNi4yNjQgMy4yODlsMi44NzEgMS42NzR2LTMuMjg1bC0yLjg3MS0xLjY3OXoiLz4mI3hhOzwvc3ZnPg==;" vertex="1" parent="jj8_yMQ8znHw3ZDIOY7E-1161">
          <mxGeometry width="30" height="27" relative="1" as="geometry">
            <mxPoint x="15" y="16" as="offset" />
          </mxGeometry>
        </mxCell>
        <mxCell id="jj8_yMQ8znHw3ZDIOY7E-1163" value="" style="edgeStyle=orthogonalEdgeStyle;orthogonalLoop=1;jettySize=auto;html=1;rounded=0;exitX=0.924;exitY=0.755;exitDx=0;exitDy=0;exitPerimeter=0;entryX=0.527;entryY=0.998;entryDx=0;entryDy=0;entryPerimeter=0;" edge="1" parent="1" source="jj8_yMQ8znHw3ZDIOY7E-1154" target="jj8_yMQ8znHw3ZDIOY7E-1159">
          <mxGeometry width="80" relative="1" as="geometry">
            <mxPoint x="2725" y="607" as="sourcePoint" />
            <mxPoint x="2863" y="584" as="targetPoint" />
            <Array as="points">
              <mxPoint x="2713" y="607" />
              <mxPoint x="3022" y="607" />
              <mxPoint x="3022" y="574" />
            </Array>
          </mxGeometry>
        </mxCell>
        <mxCell id="jj8_yMQ8znHw3ZDIOY7E-1164" value="Deploys Artifact" style="edgeLabel;html=1;align=center;verticalAlign=middle;resizable=0;points=[];" connectable="0" vertex="1" parent="jj8_yMQ8znHw3ZDIOY7E-1163">
          <mxGeometry x="0.1521" y="-2" relative="1" as="geometry">
            <mxPoint x="18" y="-1" as="offset" />
          </mxGeometry>
        </mxCell>
        <mxCell id="jj8_yMQ8znHw3ZDIOY7E-1165" value="" style="dashed=0;outlineConnect=0;html=1;align=center;labelPosition=center;verticalLabelPosition=bottom;verticalAlign=top;shape=mxgraph.weblogos.github" vertex="1" parent="1">
          <mxGeometry x="2500" y="558" width="75" height="75" as="geometry" />
        </mxCell>
        <mxCell id="jj8_yMQ8znHw3ZDIOY7E-1167" value="" style="edgeStyle=none;orthogonalLoop=1;jettySize=auto;html=1;rounded=0;entryX=0.09;entryY=0.533;entryDx=0;entryDy=0;entryPerimeter=0;" edge="1" parent="1" source="jj8_yMQ8znHw3ZDIOY7E-1165" target="jj8_yMQ8znHw3ZDIOY7E-1154">
          <mxGeometry width="80" relative="1" as="geometry">
            <mxPoint x="2550" y="370" as="sourcePoint" />
            <mxPoint x="2630" y="370" as="targetPoint" />
            <Array as="points" />
          </mxGeometry>
        </mxCell>
        <mxCell id="jj8_yMQ8znHw3ZDIOY7E-1168" value="Triggers&lt;div&gt;Build&lt;/div&gt;" style="edgeLabel;html=1;align=center;verticalAlign=middle;resizable=0;points=[];" connectable="0" vertex="1" parent="jj8_yMQ8znHw3ZDIOY7E-1167">
          <mxGeometry x="-0.1319" y="3" relative="1" as="geometry">
            <mxPoint x="-1" as="offset" />
          </mxGeometry>
        </mxCell>
        <mxCell id="jj8_yMQ8znHw3ZDIOY7E-1170" value="" style="sketch=0;aspect=fixed;pointerEvents=1;shadow=0;dashed=0;html=1;strokeColor=none;labelPosition=center;verticalLabelPosition=bottom;verticalAlign=top;align=center;fillColor=#00188D;shape=mxgraph.azure.laptop" vertex="1" parent="1">
          <mxGeometry x="680" y="-10" width="133.34" height="80" as="geometry" />
        </mxCell>
        <mxCell id="jj8_yMQ8znHw3ZDIOY7E-1171" value="" style="sketch=0;aspect=fixed;pointerEvents=1;shadow=0;dashed=0;html=1;strokeColor=none;labelPosition=center;verticalLabelPosition=bottom;verticalAlign=top;align=center;fillColor=#00188D;shape=mxgraph.azure.laptop" vertex="1" parent="1">
          <mxGeometry x="240" y="-10" width="133.34" height="80" as="geometry" />
        </mxCell>
        <mxCell id="jj8_yMQ8znHw3ZDIOY7E-1172" value="" style="sketch=0;aspect=fixed;pointerEvents=1;shadow=0;dashed=0;html=1;strokeColor=none;labelPosition=center;verticalLabelPosition=bottom;verticalAlign=top;align=center;fillColor=#00188D;shape=mxgraph.azure.laptop" vertex="1" parent="1">
          <mxGeometry x="20" y="-10" width="133.34" height="80" as="geometry" />
        </mxCell>
        <mxCell id="jj8_yMQ8znHw3ZDIOY7E-1173" value="Python&lt;div&gt;VS Code&lt;/div&gt;&lt;div&gt;Git&lt;/div&gt;&lt;div&gt;gcloud&lt;/div&gt;" style="text;strokeColor=none;align=center;fillColor=none;html=1;verticalAlign=middle;whiteSpace=wrap;rounded=0;fontSize=9;" vertex="1" parent="1">
          <mxGeometry x="51.67" y="10" width="70" height="20" as="geometry" />
        </mxCell>
        <mxCell id="jj8_yMQ8znHw3ZDIOY7E-1174" value="" style="sketch=0;outlineConnect=0;fontColor=#232F3E;gradientColor=none;fillColor=#232F3D;strokeColor=none;dashed=0;verticalLabelPosition=bottom;verticalAlign=top;align=center;html=1;fontSize=12;fontStyle=0;aspect=fixed;pointerEvents=1;shape=mxgraph.aws4.source_code;" vertex="1" parent="1">
          <mxGeometry x="320.67" y="1" width="27.77" height="38" as="geometry" />
        </mxCell>
        <mxCell id="jj8_yMQ8znHw3ZDIOY7E-1175" value="Python&lt;div&gt;VS Code&lt;/div&gt;&lt;div&gt;Git&lt;/div&gt;&lt;div&gt;gcloud&lt;/div&gt;" style="text;strokeColor=none;align=center;fillColor=none;html=1;verticalAlign=middle;whiteSpace=wrap;rounded=0;fontSize=9;" vertex="1" parent="1">
          <mxGeometry x="250.67000000000002" y="10" width="70" height="20" as="geometry" />
        </mxCell>
        <mxCell id="jj8_yMQ8znHw3ZDIOY7E-1176" value="&lt;b&gt;Google &lt;/b&gt;Cloud Platform" style="fillColor=#F6F6F6;strokeColor=none;shadow=0;gradientColor=none;fontSize=14;align=left;spacing=10;fontColor=#717171;9E9E9E;verticalAlign=top;spacingTop=-4;fontStyle=0;spacingLeft=40;html=1;container=0;" vertex="1" parent="1">
          <mxGeometry x="342.44" y="-230" width="247.56" height="170" as="geometry" />
        </mxCell>
        <mxCell id="jj8_yMQ8znHw3ZDIOY7E-1177" value="" style="shape=mxgraph.gcp2.google_cloud_platform;fillColor=#F6F6F6;strokeColor=none;shadow=0;gradientColor=none;" vertex="1" parent="1">
          <mxGeometry x="362.44" y="-220" width="23" height="20" as="geometry">
            <mxPoint x="20" y="10" as="offset" />
          </mxGeometry>
        </mxCell>
        <mxCell id="jj8_yMQ8znHw3ZDIOY7E-1178" value="" style="edgeStyle=none;orthogonalLoop=1;jettySize=auto;html=1;rounded=0;endArrow=none;startFill=0;" edge="1" parent="1">
          <mxGeometry width="80" relative="1" as="geometry">
            <mxPoint x="200" y="90" as="sourcePoint" />
            <mxPoint x="200" y="-290" as="targetPoint" />
            <Array as="points" />
          </mxGeometry>
        </mxCell>
        <mxCell id="jj8_yMQ8znHw3ZDIOY7E-1179" value="" style="edgeStyle=none;orthogonalLoop=1;jettySize=auto;html=1;rounded=0;endArrow=none;startFill=0;" edge="1" parent="1">
          <mxGeometry width="80" relative="1" as="geometry">
            <mxPoint x="640" y="90" as="sourcePoint" />
            <mxPoint x="640" y="-290" as="targetPoint" />
            <Array as="points" />
          </mxGeometry>
        </mxCell>
        <mxCell id="jj8_yMQ8znHw3ZDIOY7E-1180" value="Python&lt;div&gt;VS Code&lt;/div&gt;&lt;div&gt;Git&lt;/div&gt;&lt;div&gt;gcloud&lt;/div&gt;" style="text;strokeColor=none;align=center;fillColor=none;html=1;verticalAlign=middle;whiteSpace=wrap;rounded=0;fontSize=9;" vertex="1" parent="1">
          <mxGeometry x="690.6700000000001" y="10" width="70" height="20" as="geometry" />
        </mxCell>
        <mxCell id="jj8_yMQ8znHw3ZDIOY7E-1181" value="" style="group" connectable="0" vertex="1" parent="1">
          <mxGeometry x="753" y="-2" width="107" height="60" as="geometry" />
        </mxCell>
        <mxCell id="jj8_yMQ8znHw3ZDIOY7E-1182" value="" style="sketch=0;outlineConnect=0;fontColor=#232F3E;gradientColor=none;fillColor=#232F3D;strokeColor=none;dashed=0;verticalLabelPosition=bottom;verticalAlign=top;align=center;html=1;fontSize=12;fontStyle=0;aspect=fixed;pointerEvents=1;shape=mxgraph.aws4.source_code;" vertex="1" parent="jj8_yMQ8znHw3ZDIOY7E-1181">
          <mxGeometry x="10.000000000000114" y="10" width="27.77" height="38" as="geometry" />
        </mxCell>
        <mxCell id="jj8_yMQ8znHw3ZDIOY7E-1183" value="" style="whiteSpace=wrap;html=1;strokeColor=none;" vertex="1" parent="jj8_yMQ8znHw3ZDIOY7E-1181">
          <mxGeometry width="30" height="40" as="geometry" />
        </mxCell>
        <mxCell id="jj8_yMQ8znHw3ZDIOY7E-1184" value="" style="sketch=0;outlineConnect=0;fontColor=#232F3E;gradientColor=none;fillColor=#232F3D;strokeColor=none;dashed=0;verticalLabelPosition=bottom;verticalAlign=top;align=center;html=1;fontSize=12;fontStyle=0;aspect=fixed;pointerEvents=1;shape=mxgraph.aws4.source_code;" vertex="1" parent="jj8_yMQ8znHw3ZDIOY7E-1181">
          <mxGeometry x="1.1368683772161603e-13" width="27.77" height="38" as="geometry" />
        </mxCell>
        <mxCell id="jj8_yMQ8znHw3ZDIOY7E-1260" value="" style="whiteSpace=wrap;html=1;fillColor=#F6FF7F;gradientColor=none;opacity=30;strokeColor=none;" vertex="1" parent="jj8_yMQ8znHw3ZDIOY7E-1181">
          <mxGeometry x="-13" y="-14" width="73" height="74" as="geometry" />
        </mxCell>
        <mxCell id="jj8_yMQ8znHw3ZDIOY7E-1185" value="&amp;nbsp; Region x" style="html=1;align=left;verticalAlign=top;rounded=0;absoluteArcSize=1;arcSize=20;dashed=1;whiteSpace=wrap;" vertex="1" parent="1">
          <mxGeometry x="362.44" y="-190" width="210" height="110" as="geometry" />
        </mxCell>
        <mxCell id="jj8_yMQ8znHw3ZDIOY7E-1186" value="" style="strokeColor=#dddddd;shadow=1;strokeWidth=1;rounded=1;absoluteArcSize=1;arcSize=2;" vertex="1" parent="1">
          <mxGeometry x="402.44" y="-165" width="127.56" height="60" as="geometry" />
        </mxCell>
        <mxCell id="jj8_yMQ8znHw3ZDIOY7E-1187" value="Cloud&lt;br&gt;Function" style="editableCssRules=.*;html=1;fontColor=#999999;shape=image;verticalLabelPosition=middle;verticalAlign=middle;labelPosition=right;align=left;spacingLeft=20;part=1;points=[];imageAspect=0;image=data:image/svg+xml,PHN2ZyB4bWxucz0iaHR0cDovL3d3dy53My5vcmcvMjAwMC9zdmciIHhtbG5zOnY9Imh0dHBzOi8vdmVjdGEuaW8vbmFubyIgd2lkdGg9IjIwIiBoZWlnaHQ9IjE5Ljk4OTk5OTc3MTExODE2NCIgdmlld0JveD0iMCAwIDIwIDE5Ljk4OTk5OTc3MTExODE2NCI+JiN4YTsJPHN0eWxlIHR5cGU9InRleHQvY3NzIj4mI3hhOwkuc3Qwe2ZpbGw6IzQyODVmNDt9JiN4YTsJLnN0MXtmaWxsOiM2NjlkZjY7fSYjeGE7CS5zdDJ7ZmlsbDojYWVjYmZhO30mI3hhOwk8L3N0eWxlPiYjeGE7CTxwYXRoIGNsYXNzPSJzdDEiIGQ9Ik0zIDMuOTlMMCA2LjQydjcuMTNsMyAyLjQ0eiIvPiYjeGE7CTxwYXRoIGNsYXNzPSJzdDAiIGQ9Ik0zIDMuOTlsLTMgNCAzLTJ6bS0zIDhsMyA0di0yeiIvPiYjeGE7CTxwYXRoIGNsYXNzPSJzdDIiIGQ9Ik0wIDE1Ljk5bDQgNCAyLTItNi02em0uMDEtOEw1Ljk5IDJsLTItMkwwIDMuOTl6Ii8+JiN4YTsJPHBhdGggY2xhc3M9InN0MSIgZD0iTTE3IDE2bDMtMi40MlY2LjQ0TDE3IDR6Ii8+JiN4YTsJPHBhdGggY2xhc3M9InN0MCIgZD0iTTE3IDE2bDMtNC0zIDJ6bTMtOGwtMy00djJ6Ii8+JiN4YTsJPGcgY2xhc3M9InN0MiI+JiN4YTsJCTxwYXRoIGQ9Ik0yMCA0bC00LTQtMiAyIDYgNnptLS4wMSA4bC01Ljk4IDUuOTkgMiAyTDIwIDE2eiIvPiYjeGE7CQk8Y2lyY2xlIGN4PSI2IiBjeT0iOS45OSIgcj0iMSIvPiYjeGE7CQk8Y2lyY2xlIGN4PSIxMCIgY3k9IjkuOTkiIHI9IjEiLz4mI3hhOwkJPGNpcmNsZSBjeD0iMTMuOTkiIGN5PSI5Ljk5IiByPSIxIi8+JiN4YTsJPC9nPiYjeGE7PC9zdmc+;" vertex="1" parent="jj8_yMQ8znHw3ZDIOY7E-1186">
          <mxGeometry width="30" height="24" relative="1" as="geometry">
            <mxPoint x="15" y="18" as="offset" />
          </mxGeometry>
        </mxCell>
        <mxCell id="jj8_yMQ8znHw3ZDIOY7E-1188" value="&lt;b&gt;Google &lt;/b&gt;Cloud Platform" style="fillColor=#F6F6F6;strokeColor=none;shadow=0;gradientColor=none;fontSize=14;align=left;spacing=10;fontColor=#717171;9E9E9E;verticalAlign=top;spacingTop=-4;fontStyle=0;spacingLeft=40;html=1;container=0;" vertex="1" parent="1">
          <mxGeometry x="780" y="-230" width="247.56" height="170" as="geometry" />
        </mxCell>
        <mxCell id="jj8_yMQ8znHw3ZDIOY7E-1189" value="" style="shape=mxgraph.gcp2.google_cloud_platform;fillColor=#F6F6F6;strokeColor=none;shadow=0;gradientColor=none;" vertex="1" parent="1">
          <mxGeometry x="800" y="-220" width="23" height="20" as="geometry">
            <mxPoint x="20" y="10" as="offset" />
          </mxGeometry>
        </mxCell>
        <mxCell id="jj8_yMQ8znHw3ZDIOY7E-1190" value="&amp;nbsp; Region x" style="html=1;align=left;verticalAlign=top;rounded=0;absoluteArcSize=1;arcSize=20;dashed=1;whiteSpace=wrap;" vertex="1" parent="1">
          <mxGeometry x="800" y="-190" width="210" height="110" as="geometry" />
        </mxCell>
        <mxCell id="jj8_yMQ8znHw3ZDIOY7E-1191" value="" style="strokeColor=#dddddd;shadow=1;strokeWidth=1;rounded=1;absoluteArcSize=1;arcSize=2;" vertex="1" parent="1">
          <mxGeometry x="840" y="-165" width="127.56" height="60" as="geometry" />
        </mxCell>
        <mxCell id="jj8_yMQ8znHw3ZDIOY7E-1192" value="Cloud&lt;br&gt;Function" style="editableCssRules=.*;html=1;fontColor=#999999;shape=image;verticalLabelPosition=middle;verticalAlign=middle;labelPosition=right;align=left;spacingLeft=20;part=1;points=[];imageAspect=0;image=data:image/svg+xml,PHN2ZyB4bWxucz0iaHR0cDovL3d3dy53My5vcmcvMjAwMC9zdmciIHhtbG5zOnY9Imh0dHBzOi8vdmVjdGEuaW8vbmFubyIgd2lkdGg9IjIwIiBoZWlnaHQ9IjE5Ljk4OTk5OTc3MTExODE2NCIgdmlld0JveD0iMCAwIDIwIDE5Ljk4OTk5OTc3MTExODE2NCI+JiN4YTsJPHN0eWxlIHR5cGU9InRleHQvY3NzIj4mI3hhOwkuc3Qwe2ZpbGw6IzQyODVmNDt9JiN4YTsJLnN0MXtmaWxsOiM2NjlkZjY7fSYjeGE7CS5zdDJ7ZmlsbDojYWVjYmZhO30mI3hhOwk8L3N0eWxlPiYjeGE7CTxwYXRoIGNsYXNzPSJzdDEiIGQ9Ik0zIDMuOTlMMCA2LjQydjcuMTNsMyAyLjQ0eiIvPiYjeGE7CTxwYXRoIGNsYXNzPSJzdDAiIGQ9Ik0zIDMuOTlsLTMgNCAzLTJ6bS0zIDhsMyA0di0yeiIvPiYjeGE7CTxwYXRoIGNsYXNzPSJzdDIiIGQ9Ik0wIDE1Ljk5bDQgNCAyLTItNi02em0uMDEtOEw1Ljk5IDJsLTItMkwwIDMuOTl6Ii8+JiN4YTsJPHBhdGggY2xhc3M9InN0MSIgZD0iTTE3IDE2bDMtMi40MlY2LjQ0TDE3IDR6Ii8+JiN4YTsJPHBhdGggY2xhc3M9InN0MCIgZD0iTTE3IDE2bDMtNC0zIDJ6bTMtOGwtMy00djJ6Ii8+JiN4YTsJPGcgY2xhc3M9InN0MiI+JiN4YTsJCTxwYXRoIGQ9Ik0yMCA0bC00LTQtMiAyIDYgNnptLS4wMSA4bC01Ljk4IDUuOTkgMiAyTDIwIDE2eiIvPiYjeGE7CQk8Y2lyY2xlIGN4PSI2IiBjeT0iOS45OSIgcj0iMSIvPiYjeGE7CQk8Y2lyY2xlIGN4PSIxMCIgY3k9IjkuOTkiIHI9IjEiLz4mI3hhOwkJPGNpcmNsZSBjeD0iMTMuOTkiIGN5PSI5Ljk5IiByPSIxIi8+JiN4YTsJPC9nPiYjeGE7PC9zdmc+;" vertex="1" parent="jj8_yMQ8znHw3ZDIOY7E-1191">
          <mxGeometry width="30" height="24" relative="1" as="geometry">
            <mxPoint x="15" y="18" as="offset" />
          </mxGeometry>
        </mxCell>
        <mxCell id="jj8_yMQ8znHw3ZDIOY7E-1193" value="" style="edgeStyle=none;orthogonalLoop=1;jettySize=auto;html=1;rounded=0;endArrow=none;startFill=0;" edge="1" parent="1">
          <mxGeometry width="80" relative="1" as="geometry">
            <mxPoint x="1080" y="90" as="sourcePoint" />
            <mxPoint x="1080" y="-290" as="targetPoint" />
            <Array as="points" />
          </mxGeometry>
        </mxCell>
        <mxCell id="jj8_yMQ8znHw3ZDIOY7E-1194" value="" style="sketch=0;aspect=fixed;pointerEvents=1;shadow=0;dashed=0;html=1;strokeColor=none;labelPosition=center;verticalLabelPosition=bottom;verticalAlign=top;align=center;fillColor=#00188D;shape=mxgraph.azure.laptop" vertex="1" parent="1">
          <mxGeometry x="1120" y="-10" width="133.34" height="80" as="geometry" />
        </mxCell>
        <mxCell id="jj8_yMQ8znHw3ZDIOY7E-1195" value="Python&lt;div&gt;VS Code&lt;/div&gt;&lt;div&gt;Git&lt;/div&gt;&lt;div&gt;gcloud&lt;/div&gt;" style="text;strokeColor=none;align=center;fillColor=none;html=1;verticalAlign=middle;whiteSpace=wrap;rounded=0;fontSize=9;" vertex="1" parent="1">
          <mxGeometry x="1130.67" y="10" width="70" height="20" as="geometry" />
        </mxCell>
        <mxCell id="jj8_yMQ8znHw3ZDIOY7E-1196" value="" style="group" connectable="0" vertex="1" parent="1">
          <mxGeometry x="1193" y="-2" width="37.77000000000011" height="48" as="geometry" />
        </mxCell>
        <mxCell id="jj8_yMQ8znHw3ZDIOY7E-1197" value="" style="sketch=0;outlineConnect=0;fontColor=#232F3E;gradientColor=none;fillColor=#232F3D;strokeColor=none;dashed=0;verticalLabelPosition=bottom;verticalAlign=top;align=center;html=1;fontSize=12;fontStyle=0;aspect=fixed;pointerEvents=1;shape=mxgraph.aws4.source_code;" vertex="1" parent="jj8_yMQ8znHw3ZDIOY7E-1196">
          <mxGeometry x="10.000000000000114" y="10" width="27.77" height="38" as="geometry" />
        </mxCell>
        <mxCell id="jj8_yMQ8znHw3ZDIOY7E-1198" value="" style="whiteSpace=wrap;html=1;strokeColor=none;" vertex="1" parent="jj8_yMQ8znHw3ZDIOY7E-1196">
          <mxGeometry width="30" height="40" as="geometry" />
        </mxCell>
        <mxCell id="jj8_yMQ8znHw3ZDIOY7E-1199" value="" style="sketch=0;outlineConnect=0;fontColor=#232F3E;gradientColor=none;fillColor=#232F3D;strokeColor=none;dashed=0;verticalLabelPosition=bottom;verticalAlign=top;align=center;html=1;fontSize=12;fontStyle=0;aspect=fixed;pointerEvents=1;shape=mxgraph.aws4.source_code;" vertex="1" parent="jj8_yMQ8znHw3ZDIOY7E-1196">
          <mxGeometry x="1.1368683772161603e-13" width="27.77" height="38" as="geometry" />
        </mxCell>
        <mxCell id="jj8_yMQ8znHw3ZDIOY7E-1200" value="&lt;b&gt;Google &lt;/b&gt;Cloud Platform" style="fillColor=#F6F6F6;strokeColor=none;shadow=0;gradientColor=none;fontSize=14;align=left;spacing=10;fontColor=#717171;9E9E9E;verticalAlign=top;spacingTop=-4;fontStyle=0;spacingLeft=40;html=1;container=0;" vertex="1" parent="1">
          <mxGeometry x="1247" y="-230" width="343" height="170" as="geometry" />
        </mxCell>
        <mxCell id="jj8_yMQ8znHw3ZDIOY7E-1201" value="" style="shape=mxgraph.gcp2.google_cloud_platform;fillColor=#F6F6F6;strokeColor=none;shadow=0;gradientColor=none;" vertex="1" parent="1">
          <mxGeometry x="1267" y="-220" width="23" height="20" as="geometry">
            <mxPoint x="20" y="10" as="offset" />
          </mxGeometry>
        </mxCell>
        <mxCell id="jj8_yMQ8znHw3ZDIOY7E-1202" value="&amp;nbsp; Region x" style="html=1;align=left;verticalAlign=top;rounded=0;absoluteArcSize=1;arcSize=20;dashed=1;whiteSpace=wrap;" vertex="1" parent="1">
          <mxGeometry x="1355" y="-190" width="210" height="110" as="geometry" />
        </mxCell>
        <mxCell id="jj8_yMQ8znHw3ZDIOY7E-1203" value="" style="strokeColor=#dddddd;shadow=1;strokeWidth=1;rounded=1;absoluteArcSize=1;arcSize=2;" vertex="1" parent="1">
          <mxGeometry x="1395" y="-165" width="127.56" height="60" as="geometry" />
        </mxCell>
        <mxCell id="jj8_yMQ8znHw3ZDIOY7E-1204" value="Cloud&lt;br&gt;Function" style="editableCssRules=.*;html=1;fontColor=#999999;shape=image;verticalLabelPosition=middle;verticalAlign=middle;labelPosition=right;align=left;spacingLeft=20;part=1;points=[];imageAspect=0;image=data:image/svg+xml,PHN2ZyB4bWxucz0iaHR0cDovL3d3dy53My5vcmcvMjAwMC9zdmciIHhtbG5zOnY9Imh0dHBzOi8vdmVjdGEuaW8vbmFubyIgd2lkdGg9IjIwIiBoZWlnaHQ9IjE5Ljk4OTk5OTc3MTExODE2NCIgdmlld0JveD0iMCAwIDIwIDE5Ljk4OTk5OTc3MTExODE2NCI+JiN4YTsJPHN0eWxlIHR5cGU9InRleHQvY3NzIj4mI3hhOwkuc3Qwe2ZpbGw6IzQyODVmNDt9JiN4YTsJLnN0MXtmaWxsOiM2NjlkZjY7fSYjeGE7CS5zdDJ7ZmlsbDojYWVjYmZhO30mI3hhOwk8L3N0eWxlPiYjeGE7CTxwYXRoIGNsYXNzPSJzdDEiIGQ9Ik0zIDMuOTlMMCA2LjQydjcuMTNsMyAyLjQ0eiIvPiYjeGE7CTxwYXRoIGNsYXNzPSJzdDAiIGQ9Ik0zIDMuOTlsLTMgNCAzLTJ6bS0zIDhsMyA0di0yeiIvPiYjeGE7CTxwYXRoIGNsYXNzPSJzdDIiIGQ9Ik0wIDE1Ljk5bDQgNCAyLTItNi02em0uMDEtOEw1Ljk5IDJsLTItMkwwIDMuOTl6Ii8+JiN4YTsJPHBhdGggY2xhc3M9InN0MSIgZD0iTTE3IDE2bDMtMi40MlY2LjQ0TDE3IDR6Ii8+JiN4YTsJPHBhdGggY2xhc3M9InN0MCIgZD0iTTE3IDE2bDMtNC0zIDJ6bTMtOGwtMy00djJ6Ii8+JiN4YTsJPGcgY2xhc3M9InN0MiI+JiN4YTsJCTxwYXRoIGQ9Ik0yMCA0bC00LTQtMiAyIDYgNnptLS4wMSA4bC01Ljk4IDUuOTkgMiAyTDIwIDE2eiIvPiYjeGE7CQk8Y2lyY2xlIGN4PSI2IiBjeT0iOS45OSIgcj0iMSIvPiYjeGE7CQk8Y2lyY2xlIGN4PSIxMCIgY3k9IjkuOTkiIHI9IjEiLz4mI3hhOwkJPGNpcmNsZSBjeD0iMTMuOTkiIGN5PSI5Ljk5IiByPSIxIi8+JiN4YTsJPC9nPiYjeGE7PC9zdmc+;" vertex="1" parent="jj8_yMQ8znHw3ZDIOY7E-1203">
          <mxGeometry width="30" height="24" relative="1" as="geometry">
            <mxPoint x="15" y="18" as="offset" />
          </mxGeometry>
        </mxCell>
        <mxCell id="jj8_yMQ8znHw3ZDIOY7E-1205" value="Cloud&#xa;Build" style="sketch=0;html=1;verticalAlign=top;labelPosition=center;verticalLabelPosition=bottom;align=center;spacingTop=-6;fontSize=11;fontStyle=1;fontColor=#999999;shape=image;aspect=fixed;imageAspect=0;image=data:image/svg+xml,PHN2ZyB4bWxucz0iaHR0cDovL3d3dy53My5vcmcvMjAwMC9zdmciIHhtbG5zOnY9Imh0dHBzOi8vdmVjdGEuaW8vbmFubyIgd2lkdGg9IjE3LjMyOTk5OTkyMzcwNjA1NSIgaGVpZ2h0PSIxOS42MTAwMDA2MTAzNTE1NjIiIHZpZXdCb3g9IjAgMCAxNy4zMjk5OTk5MjM3MDYwNTUgMTkuNjEwMDAwNjEwMzUxNTYyIj4mI3hhOwk8c3R5bGUgdHlwZT0idGV4dC9jc3MiPiYjeGE7CS5zdDB7ZmlsbDojNDI4NWY0O30mI3hhOwkuc3Qxe2ZpbGw6IzY2OWRmNjt9JiN4YTsJLnN0MntmaWxsOiNhZWNiZmE7fSYjeGE7CTwvc3R5bGU+JiN4YTsJPHBhdGggY2xhc3M9InN0MCIgZD0iTTEyLjE4IDcuOThMMTEgNy4yOWwtMy41MiA2LjEgMS4xOC42OCAzLjUyLTIuMDN6IiBmaWxsPSIjNDI4NWY0Ii8+JiN4YTsJPHBhdGggY2xhc3M9InN0MSIgZD0iTTYuMzIgMTIuNzJsMy41My02LjA5LTEuMTktLjY5LTMuNTIgMi4wNHY0LjA2eiIgZmlsbD0iIzY2OWRmNiIvPiYjeGE7CTxwYXRoIGNsYXNzPSJzdDIiIGQ9Ik0zLjc1IDcuOThMMCA1LjgxdjkuMmw3Ljk3IDQuNnYtNC4zM2wtNC4yMi0yLjQ0em05LjEzLTEuMmwzLjc2LTIuMTdMOC42NiAwIC42OCA0LjYxbDMuNzYgMi4xNyA0LjIyLTIuNDR6TTkuMzUgMTkuNjFsNy45OC00LjZ2LTkuMmwtMy43NiAyLjE3djQuODZsLTQuMjIgMi40NHoiIGZpbGw9IiNhZWNiZmEiLz4mI3hhOzwvc3ZnPg==;" vertex="1" parent="1">
          <mxGeometry x="1267" y="-156" width="36" height="42" as="geometry" />
        </mxCell>
        <mxCell id="jj8_yMQ8znHw3ZDIOY7E-1206" value="" style="edgeStyle=orthogonalEdgeStyle;orthogonalLoop=1;jettySize=auto;html=1;rounded=0;exitX=0.952;exitY=0.407;exitDx=0;exitDy=0;exitPerimeter=0;" edge="1" parent="1" source="jj8_yMQ8znHw3ZDIOY7E-1171" target="jj8_yMQ8znHw3ZDIOY7E-1186">
          <mxGeometry width="80" relative="1" as="geometry">
            <mxPoint x="470" y="20" as="sourcePoint" />
            <mxPoint x="550" y="20" as="targetPoint" />
          </mxGeometry>
        </mxCell>
        <mxCell id="jj8_yMQ8znHw3ZDIOY7E-1207" value="Deployed via CLI" style="edgeLabel;html=1;align=center;verticalAlign=middle;resizable=0;points=[];" connectable="0" vertex="1" parent="jj8_yMQ8znHw3ZDIOY7E-1206">
          <mxGeometry x="0.1521" y="-2" relative="1" as="geometry">
            <mxPoint y="-1" as="offset" />
          </mxGeometry>
        </mxCell>
        <mxCell id="jj8_yMQ8znHw3ZDIOY7E-1208" value="" style="edgeStyle=orthogonalEdgeStyle;orthogonalLoop=1;jettySize=auto;html=1;rounded=0;exitX=0.942;exitY=0.425;exitDx=0;exitDy=0;exitPerimeter=0;entryX=0.525;entryY=0.983;entryDx=0;entryDy=0;entryPerimeter=0;" edge="1" parent="1" source="jj8_yMQ8znHw3ZDIOY7E-1170" target="jj8_yMQ8znHw3ZDIOY7E-1191">
          <mxGeometry width="80" relative="1" as="geometry">
            <mxPoint x="854.0699999999999" y="68" as="sourcePoint" />
            <mxPoint x="953.0699999999999" y="-60" as="targetPoint" />
          </mxGeometry>
        </mxCell>
        <mxCell id="jj8_yMQ8znHw3ZDIOY7E-1209" value="Deployed via CLI" style="edgeLabel;html=1;align=center;verticalAlign=middle;resizable=0;points=[];" connectable="0" vertex="1" parent="jj8_yMQ8znHw3ZDIOY7E-1208">
          <mxGeometry x="0.1521" y="-2" relative="1" as="geometry">
            <mxPoint y="-1" as="offset" />
          </mxGeometry>
        </mxCell>
        <mxCell id="jj8_yMQ8znHw3ZDIOY7E-1210" value="" style="edgeStyle=orthogonalEdgeStyle;orthogonalLoop=1;jettySize=auto;html=1;rounded=0;exitX=0.92;exitY=0.389;exitDx=0;exitDy=0;exitPerimeter=0;" edge="1" parent="1" source="jj8_yMQ8znHw3ZDIOY7E-1194">
          <mxGeometry width="80" relative="1" as="geometry">
            <mxPoint x="1290" y="70" as="sourcePoint" />
            <mxPoint x="1285" y="-80" as="targetPoint" />
          </mxGeometry>
        </mxCell>
        <mxCell id="jj8_yMQ8znHw3ZDIOY7E-1211" value="Triggered via CLI" style="edgeLabel;html=1;align=center;verticalAlign=middle;resizable=0;points=[];" connectable="0" vertex="1" parent="jj8_yMQ8znHw3ZDIOY7E-1210">
          <mxGeometry x="0.1521" y="-2" relative="1" as="geometry">
            <mxPoint y="-1" as="offset" />
          </mxGeometry>
        </mxCell>
        <mxCell id="jj8_yMQ8znHw3ZDIOY7E-1212" value="" style="edgeStyle=orthogonalEdgeStyle;orthogonalLoop=1;jettySize=auto;html=1;rounded=0;exitX=0.984;exitY=0.548;exitDx=0;exitDy=0;exitPerimeter=0;" edge="1" parent="1" source="jj8_yMQ8znHw3ZDIOY7E-1205" target="jj8_yMQ8znHw3ZDIOY7E-1203">
          <mxGeometry width="80" relative="1" as="geometry">
            <mxPoint x="1410" y="61" as="sourcePoint" />
            <mxPoint x="1452" y="-40" as="targetPoint" />
          </mxGeometry>
        </mxCell>
        <mxCell id="jj8_yMQ8znHw3ZDIOY7E-1213" value="Deploys" style="edgeLabel;html=1;align=center;verticalAlign=middle;resizable=0;points=[];" connectable="0" vertex="1" parent="jj8_yMQ8znHw3ZDIOY7E-1212">
          <mxGeometry x="0.1521" y="-2" relative="1" as="geometry">
            <mxPoint y="-1" as="offset" />
          </mxGeometry>
        </mxCell>
        <mxCell id="jj8_yMQ8znHw3ZDIOY7E-1214" value="" style="edgeStyle=none;orthogonalLoop=1;jettySize=auto;html=1;rounded=0;endArrow=none;startFill=0;" edge="1" parent="1">
          <mxGeometry width="80" relative="1" as="geometry">
            <mxPoint x="1640" y="90" as="sourcePoint" />
            <mxPoint x="1640" y="-290" as="targetPoint" />
            <Array as="points" />
          </mxGeometry>
        </mxCell>
        <mxCell id="jj8_yMQ8znHw3ZDIOY7E-1215" value="" style="sketch=0;aspect=fixed;pointerEvents=1;shadow=0;dashed=0;html=1;strokeColor=none;labelPosition=center;verticalLabelPosition=bottom;verticalAlign=top;align=center;fillColor=#00188D;shape=mxgraph.azure.laptop" vertex="1" parent="1">
          <mxGeometry x="1680" y="-10" width="133.34" height="80" as="geometry" />
        </mxCell>
        <mxCell id="jj8_yMQ8znHw3ZDIOY7E-1216" value="Python&lt;div&gt;VS Code&lt;/div&gt;&lt;div&gt;Git&lt;/div&gt;&lt;div&gt;gcloud&lt;/div&gt;" style="text;strokeColor=none;align=center;fillColor=none;html=1;verticalAlign=middle;whiteSpace=wrap;rounded=0;fontSize=9;" vertex="1" parent="1">
          <mxGeometry x="1690.67" y="10" width="70" height="20" as="geometry" />
        </mxCell>
        <mxCell id="jj8_yMQ8znHw3ZDIOY7E-1217" value="" style="group" connectable="0" vertex="1" parent="1">
          <mxGeometry x="1753" y="-2" width="37.77000000000011" height="48" as="geometry" />
        </mxCell>
        <mxCell id="jj8_yMQ8znHw3ZDIOY7E-1218" value="" style="sketch=0;outlineConnect=0;fontColor=#232F3E;gradientColor=none;fillColor=#232F3D;strokeColor=none;dashed=0;verticalLabelPosition=bottom;verticalAlign=top;align=center;html=1;fontSize=12;fontStyle=0;aspect=fixed;pointerEvents=1;shape=mxgraph.aws4.source_code;" vertex="1" parent="jj8_yMQ8znHw3ZDIOY7E-1217">
          <mxGeometry x="10.000000000000114" y="10" width="27.77" height="38" as="geometry" />
        </mxCell>
        <mxCell id="jj8_yMQ8znHw3ZDIOY7E-1219" value="" style="whiteSpace=wrap;html=1;strokeColor=none;" vertex="1" parent="jj8_yMQ8znHw3ZDIOY7E-1217">
          <mxGeometry width="30" height="40" as="geometry" />
        </mxCell>
        <mxCell id="jj8_yMQ8znHw3ZDIOY7E-1220" value="" style="sketch=0;outlineConnect=0;fontColor=#232F3E;gradientColor=none;fillColor=#232F3D;strokeColor=none;dashed=0;verticalLabelPosition=bottom;verticalAlign=top;align=center;html=1;fontSize=12;fontStyle=0;aspect=fixed;pointerEvents=1;shape=mxgraph.aws4.source_code;" vertex="1" parent="jj8_yMQ8znHw3ZDIOY7E-1217">
          <mxGeometry x="1.1368683772161603e-13" width="27.77" height="38" as="geometry" />
        </mxCell>
        <mxCell id="jj8_yMQ8znHw3ZDIOY7E-1221" value="&lt;b&gt;Google &lt;/b&gt;Cloud Platform" style="fillColor=#F6F6F6;strokeColor=none;shadow=0;gradientColor=none;fontSize=14;align=left;spacing=10;fontColor=#717171;9E9E9E;verticalAlign=top;spacingTop=-4;fontStyle=0;spacingLeft=40;html=1;container=0;" vertex="1" parent="1">
          <mxGeometry x="1807" y="-290" width="473" height="260" as="geometry" />
        </mxCell>
        <mxCell id="jj8_yMQ8znHw3ZDIOY7E-1222" value="" style="shape=mxgraph.gcp2.google_cloud_platform;fillColor=#F6F6F6;strokeColor=none;shadow=0;gradientColor=none;" vertex="1" parent="1">
          <mxGeometry x="1827" y="-280" width="23" height="20" as="geometry">
            <mxPoint x="20" y="10" as="offset" />
          </mxGeometry>
        </mxCell>
        <mxCell id="jj8_yMQ8znHw3ZDIOY7E-1223" value="&amp;nbsp; Region x" style="html=1;align=left;verticalAlign=top;rounded=0;absoluteArcSize=1;arcSize=20;dashed=1;whiteSpace=wrap;" vertex="1" parent="1">
          <mxGeometry x="1890" y="-250" width="370" height="150" as="geometry" />
        </mxCell>
        <mxCell id="jj8_yMQ8znHw3ZDIOY7E-1224" value="Cloud&#xa;Build" style="sketch=0;html=1;verticalAlign=top;labelPosition=center;verticalLabelPosition=bottom;align=center;spacingTop=-6;fontSize=11;fontStyle=1;fontColor=#999999;shape=image;aspect=fixed;imageAspect=0;image=data:image/svg+xml,PHN2ZyB4bWxucz0iaHR0cDovL3d3dy53My5vcmcvMjAwMC9zdmciIHhtbG5zOnY9Imh0dHBzOi8vdmVjdGEuaW8vbmFubyIgd2lkdGg9IjE3LjMyOTk5OTkyMzcwNjA1NSIgaGVpZ2h0PSIxOS42MTAwMDA2MTAzNTE1NjIiIHZpZXdCb3g9IjAgMCAxNy4zMjk5OTk5MjM3MDYwNTUgMTkuNjEwMDAwNjEwMzUxNTYyIj4mI3hhOwk8c3R5bGUgdHlwZT0idGV4dC9jc3MiPiYjeGE7CS5zdDB7ZmlsbDojNDI4NWY0O30mI3hhOwkuc3Qxe2ZpbGw6IzY2OWRmNjt9JiN4YTsJLnN0MntmaWxsOiNhZWNiZmE7fSYjeGE7CTwvc3R5bGU+JiN4YTsJPHBhdGggY2xhc3M9InN0MCIgZD0iTTEyLjE4IDcuOThMMTEgNy4yOWwtMy41MiA2LjEgMS4xOC42OCAzLjUyLTIuMDN6IiBmaWxsPSIjNDI4NWY0Ii8+JiN4YTsJPHBhdGggY2xhc3M9InN0MSIgZD0iTTYuMzIgMTIuNzJsMy41My02LjA5LTEuMTktLjY5LTMuNTIgMi4wNHY0LjA2eiIgZmlsbD0iIzY2OWRmNiIvPiYjeGE7CTxwYXRoIGNsYXNzPSJzdDIiIGQ9Ik0zLjc1IDcuOThMMCA1LjgxdjkuMmw3Ljk3IDQuNnYtNC4zM2wtNC4yMi0yLjQ0em05LjEzLTEuMmwzLjc2LTIuMTdMOC42NiAwIC42OCA0LjYxbDMuNzYgMi4xNyA0LjIyLTIuNDR6TTkuMzUgMTkuNjFsNy45OC00LjZ2LTkuMmwtMy43NiAyLjE3djQuODZsLTQuMjIgMi40NHoiIGZpbGw9IiNhZWNiZmEiLz4mI3hhOzwvc3ZnPg==;" vertex="1" parent="1">
          <mxGeometry x="1827" y="-156" width="36" height="42" as="geometry" />
        </mxCell>
        <mxCell id="jj8_yMQ8znHw3ZDIOY7E-1225" value="" style="edgeStyle=orthogonalEdgeStyle;orthogonalLoop=1;jettySize=auto;html=1;rounded=0;exitX=0.92;exitY=0.389;exitDx=0;exitDy=0;exitPerimeter=0;" edge="1" parent="1" source="jj8_yMQ8znHw3ZDIOY7E-1215">
          <mxGeometry width="80" relative="1" as="geometry">
            <mxPoint x="1850" y="70" as="sourcePoint" />
            <mxPoint x="1845" y="-80" as="targetPoint" />
          </mxGeometry>
        </mxCell>
        <mxCell id="jj8_yMQ8znHw3ZDIOY7E-1226" value="Triggered via CLI" style="edgeLabel;html=1;align=center;verticalAlign=middle;resizable=0;points=[];" connectable="0" vertex="1" parent="jj8_yMQ8znHw3ZDIOY7E-1225">
          <mxGeometry x="0.1521" y="-2" relative="1" as="geometry">
            <mxPoint y="-1" as="offset" />
          </mxGeometry>
        </mxCell>
        <mxCell id="jj8_yMQ8znHw3ZDIOY7E-1227" value="" style="edgeStyle=orthogonalEdgeStyle;orthogonalLoop=1;jettySize=auto;html=1;rounded=0;exitX=0.984;exitY=0.548;exitDx=0;exitDy=0;exitPerimeter=0;" edge="1" parent="1" source="jj8_yMQ8znHw3ZDIOY7E-1224" target="jj8_yMQ8znHw3ZDIOY7E-1231">
          <mxGeometry width="80" relative="1" as="geometry">
            <mxPoint x="1970" y="61" as="sourcePoint" />
            <mxPoint x="1955" y="-135.00000000000023" as="targetPoint" />
            <Array as="points">
              <mxPoint x="2000" y="-133" />
            </Array>
          </mxGeometry>
        </mxCell>
        <mxCell id="jj8_yMQ8znHw3ZDIOY7E-1228" value="Publishes Artifact" style="edgeLabel;html=1;align=center;verticalAlign=middle;resizable=0;points=[];" connectable="0" vertex="1" parent="jj8_yMQ8znHw3ZDIOY7E-1227">
          <mxGeometry x="0.1521" y="-2" relative="1" as="geometry">
            <mxPoint x="-15" y="-1" as="offset" />
          </mxGeometry>
        </mxCell>
        <mxCell id="jj8_yMQ8znHw3ZDIOY7E-1229" value="" style="strokeColor=#dddddd;shadow=1;strokeWidth=1;rounded=1;absoluteArcSize=1;arcSize=2;" vertex="1" parent="1">
          <mxGeometry x="2100" y="-216" width="130" height="60" as="geometry" />
        </mxCell>
        <mxCell id="jj8_yMQ8znHw3ZDIOY7E-1230" value="Cloud Run" style="editableCssRules=.*;html=1;fontColor=#999999;shape=image;verticalLabelPosition=middle;verticalAlign=middle;labelPosition=right;align=left;spacingLeft=20;part=1;points=[];imageAspect=0;image=data:image/svg+xml,PHN2ZyB4bWxucz0iaHR0cDovL3d3dy53My5vcmcvMjAwMC9zdmciIHhtbG5zOnY9Imh0dHBzOi8vdmVjdGEuaW8vbmFubyIgd2lkdGg9IjM2NS40NjQ5OTY3NzA0MjQ5MyIgaGVpZ2h0PSIzNzkuMjIyOTk0NDYzNTc3OTUiIHZpZXdCb3g9IjAgMCA5Ni42OTU5OTkxNDU1MDc4MSAxMDAuMzM1OTk4NTM1MTU2MjUiPiYjeGE7PHN0eWxlIHR5cGU9InRleHQvY3NzIj4mI3hhOwkuc3Qwe2ZpbGw6IzQyODVmNDt9JiN4YTsJLnN0MXtmaWxsOiNhZWNiZmE7fSYjeGE7PC9zdHlsZT4mI3hhOwk8cGF0aCBjbGFzcz0ic3QwIiBkPSJNMjkuNzk0IDEwMC4zMzZMNDYuOTIgNTAuMTY4aDQ5Ljc3NnpNMCA5OS42NzFsMTIuOTc2LTQ5LjUwMkgyOS4yMkwxNi44OTcgOTIuMDU0eiIvPiYjeGE7CTxwYXRoIGNsYXNzPSJzdDEiIGQ9Ik0yOS43OTQgMEw0Ni45MiA1MC4xNjhoNDkuNzc2ek0wIC42NjZsMTIuOTc2IDQ5LjUwMkgyOS4yMkwxNi44OTcgOC4yODN6Ii8+JiN4YTs8L3N2Zz4=;" vertex="1" parent="jj8_yMQ8znHw3ZDIOY7E-1229">
          <mxGeometry width="30" height="30" relative="1" as="geometry">
            <mxPoint x="15" y="15" as="offset" />
          </mxGeometry>
        </mxCell>
        <mxCell id="jj8_yMQ8znHw3ZDIOY7E-1231" value="" style="strokeColor=#dddddd;shadow=1;strokeWidth=1;rounded=1;absoluteArcSize=1;arcSize=2;" vertex="1" parent="1">
          <mxGeometry x="1930" y="-216" width="130" height="60" as="geometry" />
        </mxCell>
        <mxCell id="jj8_yMQ8znHw3ZDIOY7E-1232" value="Artifact&#xa;Registry" style="editableCssRules=.*;html=1;fontColor=#999999;shape=image;verticalLabelPosition=middle;verticalAlign=middle;labelPosition=right;align=left;spacingLeft=20;part=1;points=[];imageAspect=0;image=data:image/svg+xml,PHN2ZyB4bWxucz0iaHR0cDovL3d3dy53My5vcmcvMjAwMC9zdmciIHhtbG5zOnY9Imh0dHBzOi8vdmVjdGEuaW8vbmFubyIgd2lkdGg9IjIxLjk5OTAwMDU0OTMxNjQwNiIgaGVpZ2h0PSIyMC4zOTM5OTkwOTk3MzE0NDUiIHZpZXdCb3g9IjAgMCAyMS45OTkwMDA1NDkzMTY0MDYgMjAuMzkzOTk5MDk5NzMxNDQ1Ij4mI3hhOwk8c3R5bGUgdHlwZT0idGV4dC9jc3MiPiYjeGE7CS5zdDB7ZmlsbDojNDI4NWY0O2ZpbGwtcnVsZTpldmVub2RkfSYjeGE7CTwvc3R5bGU+JiN4YTsJPHBhdGggY2xhc3M9InN0MCIgZD0iTTUgMHYyLjQ1OEwxLjk5OSA0LjE5N3YxMi4wMUw1IDE3LjkzOHYyLjQ1NmwtNS0yLjg4N1YyLjg4NnptMTIgMGw0Ljk5OSAyLjg4NnYxNC42MjFMMTcgMjAuMzk0di0yLjQ1NmwzLTEuNzMxVjQuMTk3bC0zLTEuNzM5em0tNi4wMTYgNi42NzNsMi45NDctMS42NDYtMi45NDctMS42NDYtMi45NDcgMS42NDZ6bTMuMjY4LTEuMDk2bC0yLjg3MSAxLjY3OHYzLjI4N2wyLjg3MS0xLjY3NnpNNy43NzMgOC44NjZsMi44NzEgMS42NzRWNy4yNTZMNy43NzMgNS41Nzd6bS0uMjEyIDMuODc4bDIuODItMS42NDYtMi44Mi0xLjY0Ni0yLjgyIDEuNjQ2em0zLjEzMi0xLjA5OGwtMi44NzEgMS42Nzh2My4yODdsMi44NzEtMS42NzZ6bS02LjI2NCAzLjI4OUw3LjMgMTYuNjA5di0zLjI4NWwtMi44NzEtMS42Nzl6bTEwLjAyOS0yLjE5MWwyLjgyLTEuNjQ2LTIuODItMS42NDYtMi44MiAxLjY0NnptMy4xMzItMS4wOThsLTIuODcxIDEuNjc4djMuMjg3bDIuODcxLTEuNjc2em0tNi4yNjQgMy4yODlsMi44NzEgMS42NzR2LTMuMjg1bC0yLjg3MS0xLjY3OXoiLz4mI3hhOzwvc3ZnPg==;" vertex="1" parent="jj8_yMQ8znHw3ZDIOY7E-1231">
          <mxGeometry width="30" height="27" relative="1" as="geometry">
            <mxPoint x="15" y="16" as="offset" />
          </mxGeometry>
        </mxCell>
        <mxCell id="jj8_yMQ8znHw3ZDIOY7E-1233" value="" style="edgeStyle=orthogonalEdgeStyle;orthogonalLoop=1;jettySize=auto;html=1;rounded=0;exitX=0.924;exitY=0.755;exitDx=0;exitDy=0;exitPerimeter=0;entryX=0.527;entryY=0.998;entryDx=0;entryDy=0;entryPerimeter=0;" edge="1" parent="1" source="jj8_yMQ8znHw3ZDIOY7E-1262" target="jj8_yMQ8znHw3ZDIOY7E-1229">
          <mxGeometry width="80" relative="1" as="geometry">
            <mxPoint x="1872" y="-123" as="sourcePoint" />
            <mxPoint x="2010" y="-146" as="targetPoint" />
            <Array as="points">
              <mxPoint x="1860" y="-123" />
              <mxPoint x="2169" y="-123" />
              <mxPoint x="2169" y="-156" />
            </Array>
          </mxGeometry>
        </mxCell>
        <mxCell id="jj8_yMQ8znHw3ZDIOY7E-1234" value="Deploys Artifact" style="edgeLabel;html=1;align=center;verticalAlign=middle;resizable=0;points=[];" connectable="0" vertex="1" parent="jj8_yMQ8znHw3ZDIOY7E-1233">
          <mxGeometry x="0.1521" y="-2" relative="1" as="geometry">
            <mxPoint x="18" y="-1" as="offset" />
          </mxGeometry>
        </mxCell>
        <mxCell id="jj8_yMQ8znHw3ZDIOY7E-1235" value="" style="edgeStyle=none;orthogonalLoop=1;jettySize=auto;html=1;rounded=0;endArrow=none;startFill=0;" edge="1" parent="1">
          <mxGeometry width="80" relative="1" as="geometry">
            <mxPoint x="2330" y="90" as="sourcePoint" />
            <mxPoint x="2330" y="-290" as="targetPoint" />
            <Array as="points" />
          </mxGeometry>
        </mxCell>
        <mxCell id="jj8_yMQ8znHw3ZDIOY7E-1236" value="" style="sketch=0;aspect=fixed;pointerEvents=1;shadow=0;dashed=0;html=1;strokeColor=none;labelPosition=center;verticalLabelPosition=bottom;verticalAlign=top;align=center;fillColor=#00188D;shape=mxgraph.azure.laptop" vertex="1" parent="1">
          <mxGeometry x="2370" y="-10" width="133.34" height="80" as="geometry" />
        </mxCell>
        <mxCell id="jj8_yMQ8znHw3ZDIOY7E-1237" value="Python&lt;div&gt;VS Code&lt;/div&gt;&lt;div&gt;Git&lt;/div&gt;&lt;div&gt;gcloud&lt;/div&gt;" style="text;strokeColor=none;align=center;fillColor=none;html=1;verticalAlign=middle;whiteSpace=wrap;rounded=0;fontSize=9;" vertex="1" parent="1">
          <mxGeometry x="2380.67" y="10" width="70" height="20" as="geometry" />
        </mxCell>
        <mxCell id="jj8_yMQ8znHw3ZDIOY7E-1238" value="" style="group" connectable="0" vertex="1" parent="1">
          <mxGeometry x="2443" y="-2" width="37.77000000000011" height="48" as="geometry" />
        </mxCell>
        <mxCell id="jj8_yMQ8znHw3ZDIOY7E-1239" value="" style="sketch=0;outlineConnect=0;fontColor=#232F3E;gradientColor=none;fillColor=#232F3D;strokeColor=none;dashed=0;verticalLabelPosition=bottom;verticalAlign=top;align=center;html=1;fontSize=12;fontStyle=0;aspect=fixed;pointerEvents=1;shape=mxgraph.aws4.source_code;" vertex="1" parent="jj8_yMQ8znHw3ZDIOY7E-1238">
          <mxGeometry x="10.000000000000114" y="10" width="27.77" height="38" as="geometry" />
        </mxCell>
        <mxCell id="jj8_yMQ8znHw3ZDIOY7E-1240" value="" style="whiteSpace=wrap;html=1;strokeColor=none;" vertex="1" parent="jj8_yMQ8znHw3ZDIOY7E-1238">
          <mxGeometry width="30" height="40" as="geometry" />
        </mxCell>
        <mxCell id="jj8_yMQ8znHw3ZDIOY7E-1241" value="" style="sketch=0;outlineConnect=0;fontColor=#232F3E;gradientColor=none;fillColor=#232F3D;strokeColor=none;dashed=0;verticalLabelPosition=bottom;verticalAlign=top;align=center;html=1;fontSize=12;fontStyle=0;aspect=fixed;pointerEvents=1;shape=mxgraph.aws4.source_code;" vertex="1" parent="jj8_yMQ8znHw3ZDIOY7E-1238">
          <mxGeometry x="1.1368683772161603e-13" width="27.77" height="38" as="geometry" />
        </mxCell>
        <mxCell id="jj8_yMQ8znHw3ZDIOY7E-1242" value="&lt;b&gt;Google &lt;/b&gt;Cloud Platform" style="fillColor=#F6F6F6;strokeColor=none;shadow=0;gradientColor=none;fontSize=14;align=left;spacing=10;fontColor=#717171;9E9E9E;verticalAlign=top;spacingTop=-4;fontStyle=0;spacingLeft=40;html=1;container=0;" vertex="1" parent="1">
          <mxGeometry x="2660" y="-290" width="473" height="260" as="geometry" />
        </mxCell>
        <mxCell id="jj8_yMQ8znHw3ZDIOY7E-1243" value="" style="shape=mxgraph.gcp2.google_cloud_platform;fillColor=#F6F6F6;strokeColor=none;shadow=0;gradientColor=none;" vertex="1" parent="1">
          <mxGeometry x="2680" y="-280" width="23" height="20" as="geometry">
            <mxPoint x="20" y="10" as="offset" />
          </mxGeometry>
        </mxCell>
        <mxCell id="jj8_yMQ8znHw3ZDIOY7E-1244" value="&amp;nbsp; Region x" style="html=1;align=left;verticalAlign=top;rounded=0;absoluteArcSize=1;arcSize=20;dashed=1;whiteSpace=wrap;" vertex="1" parent="1">
          <mxGeometry x="2743" y="-250" width="370" height="150" as="geometry" />
        </mxCell>
        <mxCell id="jj8_yMQ8znHw3ZDIOY7E-1245" value="Cloud&#xa;Build" style="sketch=0;html=1;verticalAlign=top;labelPosition=center;verticalLabelPosition=bottom;align=center;spacingTop=-6;fontSize=11;fontStyle=1;fontColor=#999999;shape=image;aspect=fixed;imageAspect=0;image=data:image/svg+xml,PHN2ZyB4bWxucz0iaHR0cDovL3d3dy53My5vcmcvMjAwMC9zdmciIHhtbG5zOnY9Imh0dHBzOi8vdmVjdGEuaW8vbmFubyIgd2lkdGg9IjE3LjMyOTk5OTkyMzcwNjA1NSIgaGVpZ2h0PSIxOS42MTAwMDA2MTAzNTE1NjIiIHZpZXdCb3g9IjAgMCAxNy4zMjk5OTk5MjM3MDYwNTUgMTkuNjEwMDAwNjEwMzUxNTYyIj4mI3hhOwk8c3R5bGUgdHlwZT0idGV4dC9jc3MiPiYjeGE7CS5zdDB7ZmlsbDojNDI4NWY0O30mI3hhOwkuc3Qxe2ZpbGw6IzY2OWRmNjt9JiN4YTsJLnN0MntmaWxsOiNhZWNiZmE7fSYjeGE7CTwvc3R5bGU+JiN4YTsJPHBhdGggY2xhc3M9InN0MCIgZD0iTTEyLjE4IDcuOThMMTEgNy4yOWwtMy41MiA2LjEgMS4xOC42OCAzLjUyLTIuMDN6IiBmaWxsPSIjNDI4NWY0Ii8+JiN4YTsJPHBhdGggY2xhc3M9InN0MSIgZD0iTTYuMzIgMTIuNzJsMy41My02LjA5LTEuMTktLjY5LTMuNTIgMi4wNHY0LjA2eiIgZmlsbD0iIzY2OWRmNiIvPiYjeGE7CTxwYXRoIGNsYXNzPSJzdDIiIGQ9Ik0zLjc1IDcuOThMMCA1LjgxdjkuMmw3Ljk3IDQuNnYtNC4zM2wtNC4yMi0yLjQ0em05LjEzLTEuMmwzLjc2LTIuMTdMOC42NiAwIC42OCA0LjYxbDMuNzYgMi4xNyA0LjIyLTIuNDR6TTkuMzUgMTkuNjFsNy45OC00LjZ2LTkuMmwtMy43NiAyLjE3djQuODZsLTQuMjIgMi40NHoiIGZpbGw9IiNhZWNiZmEiLz4mI3hhOzwvc3ZnPg==;" vertex="1" parent="1">
          <mxGeometry x="2680" y="-156" width="36" height="42" as="geometry" />
        </mxCell>
        <mxCell id="jj8_yMQ8znHw3ZDIOY7E-1246" value="" style="edgeStyle=orthogonalEdgeStyle;orthogonalLoop=1;jettySize=auto;html=1;rounded=0;exitX=0.92;exitY=0.389;exitDx=0;exitDy=0;exitPerimeter=0;" edge="1" parent="1" source="jj8_yMQ8znHw3ZDIOY7E-1236" target="jj8_yMQ8znHw3ZDIOY7E-1256">
          <mxGeometry width="80" relative="1" as="geometry">
            <mxPoint x="2540" y="70" as="sourcePoint" />
            <mxPoint x="2535" y="-80" as="targetPoint" />
            <Array as="points">
              <mxPoint x="2538" y="21" />
            </Array>
          </mxGeometry>
        </mxCell>
        <mxCell id="jj8_yMQ8znHw3ZDIOY7E-1247" value="Triggered via push to GitHub repo" style="edgeLabel;html=1;align=center;verticalAlign=middle;resizable=0;points=[];" connectable="0" vertex="1" parent="jj8_yMQ8znHw3ZDIOY7E-1246">
          <mxGeometry x="0.1521" y="-2" relative="1" as="geometry">
            <mxPoint y="-21" as="offset" />
          </mxGeometry>
        </mxCell>
        <mxCell id="jj8_yMQ8znHw3ZDIOY7E-1248" value="" style="edgeStyle=orthogonalEdgeStyle;orthogonalLoop=1;jettySize=auto;html=1;rounded=0;exitX=0.984;exitY=0.548;exitDx=0;exitDy=0;exitPerimeter=0;" edge="1" parent="1" source="jj8_yMQ8znHw3ZDIOY7E-1245" target="jj8_yMQ8znHw3ZDIOY7E-1252">
          <mxGeometry width="80" relative="1" as="geometry">
            <mxPoint x="2823" y="61" as="sourcePoint" />
            <mxPoint x="2808" y="-135.00000000000023" as="targetPoint" />
            <Array as="points">
              <mxPoint x="2853" y="-133" />
            </Array>
          </mxGeometry>
        </mxCell>
        <mxCell id="jj8_yMQ8znHw3ZDIOY7E-1249" value="Publishes Artifact" style="edgeLabel;html=1;align=center;verticalAlign=middle;resizable=0;points=[];" connectable="0" vertex="1" parent="jj8_yMQ8znHw3ZDIOY7E-1248">
          <mxGeometry x="0.1521" y="-2" relative="1" as="geometry">
            <mxPoint x="-15" y="-1" as="offset" />
          </mxGeometry>
        </mxCell>
        <mxCell id="jj8_yMQ8znHw3ZDIOY7E-1250" value="" style="strokeColor=#dddddd;shadow=1;strokeWidth=1;rounded=1;absoluteArcSize=1;arcSize=2;" vertex="1" parent="1">
          <mxGeometry x="2953" y="-216" width="130" height="60" as="geometry" />
        </mxCell>
        <mxCell id="jj8_yMQ8znHw3ZDIOY7E-1251" value="Cloud Run" style="editableCssRules=.*;html=1;fontColor=#999999;shape=image;verticalLabelPosition=middle;verticalAlign=middle;labelPosition=right;align=left;spacingLeft=20;part=1;points=[];imageAspect=0;image=data:image/svg+xml,PHN2ZyB4bWxucz0iaHR0cDovL3d3dy53My5vcmcvMjAwMC9zdmciIHhtbG5zOnY9Imh0dHBzOi8vdmVjdGEuaW8vbmFubyIgd2lkdGg9IjM2NS40NjQ5OTY3NzA0MjQ5MyIgaGVpZ2h0PSIzNzkuMjIyOTk0NDYzNTc3OTUiIHZpZXdCb3g9IjAgMCA5Ni42OTU5OTkxNDU1MDc4MSAxMDAuMzM1OTk4NTM1MTU2MjUiPiYjeGE7PHN0eWxlIHR5cGU9InRleHQvY3NzIj4mI3hhOwkuc3Qwe2ZpbGw6IzQyODVmNDt9JiN4YTsJLnN0MXtmaWxsOiNhZWNiZmE7fSYjeGE7PC9zdHlsZT4mI3hhOwk8cGF0aCBjbGFzcz0ic3QwIiBkPSJNMjkuNzk0IDEwMC4zMzZMNDYuOTIgNTAuMTY4aDQ5Ljc3NnpNMCA5OS42NzFsMTIuOTc2LTQ5LjUwMkgyOS4yMkwxNi44OTcgOTIuMDU0eiIvPiYjeGE7CTxwYXRoIGNsYXNzPSJzdDEiIGQ9Ik0yOS43OTQgMEw0Ni45MiA1MC4xNjhoNDkuNzc2ek0wIC42NjZsMTIuOTc2IDQ5LjUwMkgyOS4yMkwxNi44OTcgOC4yODN6Ii8+JiN4YTs8L3N2Zz4=;" vertex="1" parent="jj8_yMQ8znHw3ZDIOY7E-1250">
          <mxGeometry width="30" height="30" relative="1" as="geometry">
            <mxPoint x="15" y="15" as="offset" />
          </mxGeometry>
        </mxCell>
        <mxCell id="jj8_yMQ8znHw3ZDIOY7E-1252" value="" style="strokeColor=#dddddd;shadow=1;strokeWidth=1;rounded=1;absoluteArcSize=1;arcSize=2;" vertex="1" parent="1">
          <mxGeometry x="2783" y="-216" width="130" height="60" as="geometry" />
        </mxCell>
        <mxCell id="jj8_yMQ8znHw3ZDIOY7E-1253" value="Artifact&#xa;Registry" style="editableCssRules=.*;html=1;fontColor=#999999;shape=image;verticalLabelPosition=middle;verticalAlign=middle;labelPosition=right;align=left;spacingLeft=20;part=1;points=[];imageAspect=0;image=data:image/svg+xml,PHN2ZyB4bWxucz0iaHR0cDovL3d3dy53My5vcmcvMjAwMC9zdmciIHhtbG5zOnY9Imh0dHBzOi8vdmVjdGEuaW8vbmFubyIgd2lkdGg9IjIxLjk5OTAwMDU0OTMxNjQwNiIgaGVpZ2h0PSIyMC4zOTM5OTkwOTk3MzE0NDUiIHZpZXdCb3g9IjAgMCAyMS45OTkwMDA1NDkzMTY0MDYgMjAuMzkzOTk5MDk5NzMxNDQ1Ij4mI3hhOwk8c3R5bGUgdHlwZT0idGV4dC9jc3MiPiYjeGE7CS5zdDB7ZmlsbDojNDI4NWY0O2ZpbGwtcnVsZTpldmVub2RkfSYjeGE7CTwvc3R5bGU+JiN4YTsJPHBhdGggY2xhc3M9InN0MCIgZD0iTTUgMHYyLjQ1OEwxLjk5OSA0LjE5N3YxMi4wMUw1IDE3LjkzOHYyLjQ1NmwtNS0yLjg4N1YyLjg4NnptMTIgMGw0Ljk5OSAyLjg4NnYxNC42MjFMMTcgMjAuMzk0di0yLjQ1NmwzLTEuNzMxVjQuMTk3bC0zLTEuNzM5em0tNi4wMTYgNi42NzNsMi45NDctMS42NDYtMi45NDctMS42NDYtMi45NDcgMS42NDZ6bTMuMjY4LTEuMDk2bC0yLjg3MSAxLjY3OHYzLjI4N2wyLjg3MS0xLjY3NnpNNy43NzMgOC44NjZsMi44NzEgMS42NzRWNy4yNTZMNy43NzMgNS41Nzd6bS0uMjEyIDMuODc4bDIuODItMS42NDYtMi44Mi0xLjY0Ni0yLjgyIDEuNjQ2em0zLjEzMi0xLjA5OGwtMi44NzEgMS42Nzh2My4yODdsMi44NzEtMS42NzZ6bS02LjI2NCAzLjI4OUw3LjMgMTYuNjA5di0zLjI4NWwtMi44NzEtMS42Nzl6bTEwLjAyOS0yLjE5MWwyLjgyLTEuNjQ2LTIuODItMS42NDYtMi44MiAxLjY0NnptMy4xMzItMS4wOThsLTIuODcxIDEuNjc4djMuMjg3bDIuODcxLTEuNjc2em0tNi4yNjQgMy4yODlsMi44NzEgMS42NzR2LTMuMjg1bC0yLjg3MS0xLjY3OXoiLz4mI3hhOzwvc3ZnPg==;" vertex="1" parent="jj8_yMQ8znHw3ZDIOY7E-1252">
          <mxGeometry width="30" height="27" relative="1" as="geometry">
            <mxPoint x="15" y="16" as="offset" />
          </mxGeometry>
        </mxCell>
        <mxCell id="jj8_yMQ8znHw3ZDIOY7E-1254" value="" style="edgeStyle=orthogonalEdgeStyle;orthogonalLoop=1;jettySize=auto;html=1;rounded=0;exitX=0.924;exitY=0.755;exitDx=0;exitDy=0;exitPerimeter=0;entryX=0.527;entryY=0.998;entryDx=0;entryDy=0;entryPerimeter=0;" edge="1" parent="1" source="jj8_yMQ8znHw3ZDIOY7E-1245" target="jj8_yMQ8znHw3ZDIOY7E-1250">
          <mxGeometry width="80" relative="1" as="geometry">
            <mxPoint x="2725" y="-123" as="sourcePoint" />
            <mxPoint x="2863" y="-146" as="targetPoint" />
            <Array as="points">
              <mxPoint x="2713" y="-123" />
              <mxPoint x="3022" y="-123" />
              <mxPoint x="3022" y="-156" />
            </Array>
          </mxGeometry>
        </mxCell>
        <mxCell id="jj8_yMQ8znHw3ZDIOY7E-1255" value="Deploys Artifact" style="edgeLabel;html=1;align=center;verticalAlign=middle;resizable=0;points=[];" connectable="0" vertex="1" parent="jj8_yMQ8znHw3ZDIOY7E-1254">
          <mxGeometry x="0.1521" y="-2" relative="1" as="geometry">
            <mxPoint x="18" y="-1" as="offset" />
          </mxGeometry>
        </mxCell>
        <mxCell id="jj8_yMQ8znHw3ZDIOY7E-1256" value="" style="dashed=0;outlineConnect=0;html=1;align=center;labelPosition=center;verticalLabelPosition=bottom;verticalAlign=top;shape=mxgraph.weblogos.github" vertex="1" parent="1">
          <mxGeometry x="2500" y="-172" width="75" height="75" as="geometry" />
        </mxCell>
        <mxCell id="jj8_yMQ8znHw3ZDIOY7E-1257" value="" style="edgeStyle=none;orthogonalLoop=1;jettySize=auto;html=1;rounded=0;entryX=0.09;entryY=0.533;entryDx=0;entryDy=0;entryPerimeter=0;" edge="1" parent="1" source="jj8_yMQ8znHw3ZDIOY7E-1256" target="jj8_yMQ8znHw3ZDIOY7E-1245">
          <mxGeometry width="80" relative="1" as="geometry">
            <mxPoint x="2550" y="-360" as="sourcePoint" />
            <mxPoint x="2630" y="-360" as="targetPoint" />
            <Array as="points" />
          </mxGeometry>
        </mxCell>
        <mxCell id="jj8_yMQ8znHw3ZDIOY7E-1258" value="Triggers&lt;div&gt;Build&lt;/div&gt;" style="edgeLabel;html=1;align=center;verticalAlign=middle;resizable=0;points=[];" connectable="0" vertex="1" parent="jj8_yMQ8znHw3ZDIOY7E-1257">
          <mxGeometry x="-0.1319" y="3" relative="1" as="geometry">
            <mxPoint x="-1" as="offset" />
          </mxGeometry>
        </mxCell>
        <mxCell id="jj8_yMQ8znHw3ZDIOY7E-1259" value="" style="whiteSpace=wrap;html=1;fillColor=#F6FF7F;gradientColor=none;opacity=30;strokeColor=none;" vertex="1" parent="1">
          <mxGeometry x="310" y="-240" width="280" height="286" as="geometry" />
        </mxCell>
        <mxCell id="jj8_yMQ8znHw3ZDIOY7E-1261" value="" style="whiteSpace=wrap;html=1;fillColor=#F6FF7F;gradientColor=none;opacity=30;strokeColor=none;" vertex="1" parent="1">
          <mxGeometry x="1220" y="-164" width="190" height="194" as="geometry" />
        </mxCell>
        <mxCell id="jj8_yMQ8znHw3ZDIOY7E-1263" value="" style="edgeStyle=orthogonalEdgeStyle;orthogonalLoop=1;jettySize=auto;html=1;rounded=0;exitX=0.924;exitY=0.755;exitDx=0;exitDy=0;exitPerimeter=0;entryX=0.527;entryY=0.998;entryDx=0;entryDy=0;entryPerimeter=0;" edge="1" parent="1" source="jj8_yMQ8znHw3ZDIOY7E-1224" target="jj8_yMQ8znHw3ZDIOY7E-1262">
          <mxGeometry width="80" relative="1" as="geometry">
            <mxPoint x="1860" y="-124" as="sourcePoint" />
            <mxPoint x="2169" y="-156" as="targetPoint" />
            <Array as="points" />
          </mxGeometry>
        </mxCell>
        <mxCell id="jj8_yMQ8znHw3ZDIOY7E-1262" value="" style="whiteSpace=wrap;html=1;fillColor=#F6FF7F;gradientColor=none;opacity=30;strokeColor=none;" vertex="1" parent="1">
          <mxGeometry x="1870" y="-272" width="410" height="194" as="geometry" />
        </mxCell>
        <mxCell id="jj8_yMQ8znHw3ZDIOY7E-1265" value="" style="whiteSpace=wrap;html=1;fillColor=#F6FF7F;gradientColor=none;opacity=30;strokeColor=none;" vertex="1" parent="1">
          <mxGeometry x="2430" y="-204" width="230" height="194" as="geometry" />
        </mxCell>
        <mxCell id="jj8_yMQ8znHw3ZDIOY7E-1267" value="Cloud Run Function Deployed via CLI" style="text;strokeColor=none;align=center;fillColor=none;html=1;verticalAlign=middle;whiteSpace=wrap;rounded=0;fontStyle=1;fontSize=17;" vertex="1" parent="1">
          <mxGeometry x="250" y="384" width="340" height="30" as="geometry" />
        </mxCell>
        <mxCell id="jj8_yMQ8znHw3ZDIOY7E-1268" value="Files Separated for Testing" style="text;strokeColor=none;align=center;fillColor=none;html=1;verticalAlign=middle;whiteSpace=wrap;rounded=0;fontStyle=1;fontSize=17;" vertex="1" parent="1">
          <mxGeometry x="690.6700000000001" y="384" width="340" height="30" as="geometry" />
        </mxCell>
        <mxCell id="jj8_yMQ8znHw3ZDIOY7E-1269" value="Cloud Build Introduced" style="text;strokeColor=none;align=center;fillColor=none;html=1;verticalAlign=middle;whiteSpace=wrap;rounded=0;fontStyle=1;fontSize=17;" vertex="1" parent="1">
          <mxGeometry x="1200.67" y="384" width="340" height="30" as="geometry" />
        </mxCell>
        <mxCell id="jj8_yMQ8znHw3ZDIOY7E-1270" value="Introduction of Arifact Registry and Deployment to Cloud Run Service" style="text;strokeColor=none;align=center;fillColor=none;html=1;verticalAlign=middle;whiteSpace=wrap;rounded=0;fontStyle=1;fontSize=17;" vertex="1" parent="1">
          <mxGeometry x="1700" y="384" width="570" height="30" as="geometry" />
        </mxCell>
        <mxCell id="jj8_yMQ8znHw3ZDIOY7E-1271" value="Introduction of GitHub and Further Automated CI/CD Pipeline" style="text;strokeColor=none;align=center;fillColor=none;html=1;verticalAlign=middle;whiteSpace=wrap;rounded=0;fontStyle=1;fontSize=17;" vertex="1" parent="1">
          <mxGeometry x="2480.77" y="384" width="570" height="30" as="geometry" />
        </mxCell>
        <mxCell id="jj8_yMQ8znHw3ZDIOY7E-1049" value="Python&lt;div&gt;VS Code&lt;/div&gt;&lt;div&gt;Git&lt;/div&gt;&lt;div&gt;gcloud&lt;/div&gt;" style="text;strokeColor=none;align=center;fillColor=none;html=1;verticalAlign=middle;whiteSpace=wrap;rounded=0;fontSize=9;" vertex="1" parent="1">
          <mxGeometry x="51.67" y="740" width="70" height="20" as="geometry" />
        </mxCell>
        <mxCell id="jj8_yMQ8znHw3ZDIOY7E-1266" value="Starting Point" style="text;strokeColor=none;align=center;fillColor=none;html=1;verticalAlign=middle;whiteSpace=wrap;rounded=0;fontStyle=1;fontSize=17;" vertex="1" parent="1">
          <mxGeometry x="6.67" y="384" width="160" height="30" as="geometry" />
        </mxCell>
      </root>
    </mxGraphModel>
  </diagram>
</mxfile>
